<?xml version="1.0" encoding="UTF-8"?>
<svg width="500px" height="700px" viewBox="0 0 500 700" version="1.1" xmlns="http://www.w3.org/2000/svg" xmlns:xlink="http://www.w3.org/1999/xlink">
    <!-- Generator: Sketch 45.2 (43514) - http://www.bohemiancoding.com/sketch -->
    <title>Hazit/Hazit-dislay</title>
    <desc>Created with Sketch.</desc>
    <defs></defs>
    <g id="Page-1" stroke="none" stroke-width="1" fill="none" fill-rule="evenodd">
        <g id="Hazit/Hazit-dislay">
            <rect id="Rectangle-Copy" fill="#120A33" x="20" y="650" width="460" height="30"></rect>
            <rect id="Rectangle-Copy-4" fill="#120A33" x="20" y="20" width="460" height="30"></rect>
            <rect id="Rectangle-Copy-2" fill="#120A33" x="450" y="70" width="30" height="560"></rect>
            <rect id="Rectangle-Copy-3" fill="#120A33" x="20" y="70" width="30" height="560"></rect>
            <g id="Group" transform="translate(106.000000, 135.000000)">
                <path d="M288.009375,41.238 C287.66404,42.442006 287.118045,43.5199952 286.371375,44.472 C285.512704,45.5733388 284.402048,46.4366635 283.039375,47.062 C281.676702,47.6873365 280.034051,48 278.111375,48 L266.127375,48 C265.978041,48 265.852042,47.9486672 265.749375,47.846 C265.646708,47.7433328 265.595375,47.6173341 265.595375,47.468 L265.595375,37.052 C265.595375,36.9213327 265.646708,36.8093338 265.749375,36.716 C265.852042,36.6226662 265.978041,36.576 266.127375,36.576 L275.059375,36.576 C275.750045,36.576 276.328706,36.2680031 276.795375,35.652 L276.795375,18.544 L266.547375,18.544 C266.398041,18.544 266.272042,18.4926672 266.169375,18.39 C266.066708,18.2873328 266.015375,18.1800006 266.015375,18.068 L266.015375,7.232 C266.015375,7.10133268 266.066708,6.98466718 266.169375,6.882 C266.272042,6.77933282 266.398041,6.728 266.547375,6.728 L287.995375,6.728 C288.144709,6.728 288.270708,6.77933282 288.373375,6.882 C288.476042,6.98466718 288.527375,7.10133268 288.527375,7.232 L288.527375,37.584 C288.527375,38.8160062 288.35471,40.033994 288.009375,41.238 Z M251.461375,6.672 C251.83471,6.672 252.15204,6.80733198 252.413375,7.078 C252.67471,7.34866802 252.805375,7.66133156 252.805375,8.016 L252.805375,37.444 C252.768041,37.5373338 252.637376,37.7239986 252.413375,38.004 C251.98404,38.5266693 251.228047,39.3946606 250.145375,40.608 L248.661375,42.26 L244.629375,46.656 C244.25604,47.0293352 243.845377,47.3279989 243.397375,47.552 C242.874706,47.8320014 242.436043,47.972 242.081375,47.972 L231.049375,47.972 C230.638706,47.972 230.433375,47.8226682 230.433375,47.524 C230.433375,47.2626654 230.582707,46.9733349 230.881375,46.656 L240.989375,35.232 C241.605378,34.5413299 242.062707,33.692005 242.361375,32.684 C242.604043,31.8813293 242.725375,31.2000028 242.725375,30.64 L242.725375,20.476 C242.725375,19.542662 242.520044,18.8986684 242.109375,18.544 C241.829374,18.3013321 241.428044,18.18 240.905375,18.18 L230.237375,18.18 C229.845373,18.18 229.51871,18.0540013 229.257375,17.802 C228.99604,17.5499987 228.865375,17.228002 228.865375,16.836 L228.865375,1.52 C228.865375,1.12799804 228.99604,0.80133464 229.257375,0.54 C229.51871,0.27866536 229.845373,0.148 230.237375,0.148 L237.993375,0.148 C238.348043,0.148 238.660707,0.27866536 238.931375,0.54 C239.202043,0.80133464 239.337375,1.12799804 239.337375,1.52 L239.337375,6.672 L251.461375,6.672 Z M169.737375,47.748 C169.737375,47.822667 169.709375,47.8833331 169.653375,47.93 C169.597375,47.9766669 169.541375,48 169.485375,48 L158.565375,48 C158.360041,48 158.257375,47.9160008 158.257375,47.748 L158.257375,18.46 L144.425375,18.46 C144.332041,18.46 144.257375,18.4320003 144.201375,18.376 C144.145375,18.3199997 144.117375,18.2640003 144.117375,18.208 L144.117375,6.924 C144.117375,6.75599916 144.220041,6.672 144.425375,6.672 L169.737375,6.672 L169.737375,47.748 Z M155.233375,24.844 C155.438709,24.844 155.541375,24.9279992 155.541375,25.096 L155.541375,47.748 C155.541375,47.9160008 155.438709,48 155.233375,48 L144.537375,48 C144.332041,48 144.229375,47.9160008 144.229375,47.748 L144.229375,25.096 C144.229375,24.9279992 144.332041,24.844 144.537375,24.844 L155.233375,24.844 Z M123.255375,6.672 C123.666044,6.672 124.025373,6.82599846 124.333375,7.134 C124.641376,7.44200154 124.795375,7.81066452 124.795375,8.24 L124.795375,16.024 C124.758041,18.5626794 124.739375,20.7839905 124.739375,22.688 C124.739375,24.0693402 124.748708,25.0399972 124.767375,25.6 C124.767375,26.533338 124.776708,27.0933324 124.795375,27.28 C124.795375,27.9333366 124.66471,28.3999986 124.403375,28.68 C124.198041,28.9226679 123.768712,29.1933318 123.115375,29.492 L121.491375,30.248 L120.315375,30.808 C120.128707,30.882667 119.979376,30.9526663 119.867375,31.018 C119.755374,31.0833337 119.690042,31.1813327 119.671375,31.312 L119.671375,31.424 C119.671375,31.5733341 119.708708,31.7319992 119.783375,31.9 C119.858042,32.1240011 120.072707,32.4599978 120.427375,32.908 L123.955375,37.528 C124.403377,37.7893346 124.683374,38.1439978 124.795375,38.592 L124.795375,46.376 C124.795375,46.8240022 124.641376,47.2066651 124.333375,47.524 C124.025373,47.8413349 123.666044,48 123.255375,48 L111.075375,48 C110.627373,48 110.25871,47.8413349 109.969375,47.524 C109.68004,47.2066651 109.535375,46.8240022 109.535375,46.376 L109.535375,38.9 C109.535375,38.5266648 109.65204,38.2000014 109.885375,37.92 C110.118709,37.6399986 110.42204,37.462667 110.795375,37.388 L107.967375,33.804 C107.538039,33.2999975 107.099377,33.048 106.651375,33.048 C106.352707,33.048 106.100709,33.1366658 105.895375,33.314 C105.690041,33.4913342 105.578042,33.7106654 105.559375,33.972 C105.559375,34.2520014 105.554708,34.4666659 105.545375,34.616 C105.536042,34.7653341 105.531375,34.8959994 105.531375,35.008 C105.512708,35.1013338 105.503375,35.2413324 105.503375,35.428 C105.503375,35.5213338 105.522041,35.7359983 105.559375,36.072 L105.699375,36.744 C105.755375,37.0426682 105.867374,37.2199997 106.035375,37.276 C106.147376,37.3133335 106.268708,37.332 106.399375,37.332 C106.82871,37.332 107.197373,37.4859985 107.505375,37.794 C107.813376,38.1020015 107.967375,38.4706645 107.967375,38.9 L107.967375,46.376 C107.967375,46.8240022 107.813376,47.2066651 107.505375,47.524 C107.197373,47.8413349 106.82871,48 106.399375,48 L96.2913749,48 C95.8620395,48 95.4933765,47.8413349 95.1853749,47.524 C94.8773734,47.2066651 94.7233749,46.8240022 94.7233749,46.376 L94.7233749,41.588 C94.6860414,38.862653 94.6673749,37.0146715 94.6673749,36.044 L94.6673749,31.648 C94.6673749,30.8826628 94.6767082,30.3600014 94.6953749,30.08 C94.6953749,29.6319978 94.7047082,29.3800003 94.7233749,29.324 C94.7607085,29.0999989 94.7793749,28.8666679 94.7793749,28.624 C94.7793749,27.9333299 94.8633741,27.3453358 95.0313749,26.86 C95.1247087,26.5986654 95.2833738,26.3933341 95.5073749,26.244 C96.0300442,26.0013321 96.5153727,25.7493346 96.9633749,25.488 C97.5607113,25.1519983 98.0740395,24.8720011 98.5033749,24.648 C98.8393766,24.4613324 99.0913741,24.2886675 99.2593749,24.13 C99.4273758,23.9713325 99.5113749,23.7893344 99.5113749,23.584 C99.5113749,23.2853318 99.3340434,22.9213355 98.9793749,22.492 L94.7233749,17.032 L94.7233749,8.24 C94.7233749,7.81066452 94.8773734,7.44200154 95.1853749,7.134 C95.4933765,6.82599846 95.8620395,6.672 96.2913749,6.672 L108.443375,6.672 C108.891377,6.672 109.27404,6.82599846 109.591375,7.134 C109.90871,7.44200154 110.067375,7.81066452 110.067375,8.24 L110.067375,15.716 C110.067375,16.1640022 109.90871,16.5373318 109.591375,16.836 C109.27404,17.1346682 108.891377,17.284 108.443375,17.284 L108.387375,17.284 L111.271375,21.036 C111.738044,21.6333363 112.223372,22.0159992 112.727375,22.184 C112.858042,22.2400003 112.998041,22.268 113.147375,22.268 C113.558044,22.268 113.847374,21.9413366 114.015375,21.288 C114.183376,20.8026642 114.276708,20.3453355 114.295375,19.916 C114.314042,19.6359986 114.332708,19.3933344 114.351375,19.188 C114.370042,18.9826656 114.388708,18.8053341 114.407375,18.656 C114.426042,18.5439994 114.435375,18.3946676 114.435375,18.208 C114.435375,17.7039975 114.27671,17.3960006 113.959375,17.284 C113.511373,17.284 113.138043,17.1346682 112.839375,16.836 C112.540707,16.5373318 112.391375,16.1640022 112.391375,15.716 L112.391375,8.24 C112.391375,7.81066452 112.540707,7.44200154 112.839375,7.134 C113.138043,6.82599846 113.511373,6.672 113.959375,6.672 L123.255375,6.672 Z M74.9053749,7.232 C75.2413766,7.56800168 75.4093749,7.97866424 75.4093749,8.464 L75.4093749,46.32 C75.4093749,46.7680022 75.2413766,47.1599983 74.9053749,47.496 C74.5693733,47.8320017 74.1587107,48 73.6733749,48 L66.6453749,48 C66.1600392,48 65.7493766,47.8320017 65.4133749,47.496 C65.0773733,47.1599983 64.9093749,46.7680022 64.9093749,46.32 L64.9093749,17.032 L50.5733749,17.032 C50.0880392,17.032 49.6867099,16.8733349 49.3693749,16.556 C49.05204,16.2386651 48.8933749,15.8373358 48.8933749,15.352 L48.8933749,8.464 C48.8933749,7.97866424 49.05204,7.56800168 49.3693749,7.232 C49.6867099,6.89599832 50.0880392,6.728 50.5733749,6.728 L73.6733749,6.728 C74.1587107,6.728 74.5693733,6.89599832 74.9053749,7.232 Z M33.9073749,24.032 C33.59004,25.506674 33.0113791,26.7199952 32.1713749,27.672 C31.0140358,28.9226729 29.427385,29.548 27.4113749,29.548 L24.0233749,29.492 L24.0233749,54.748 C24.0233749,55.0653349 23.9207093,55.3266656 23.7153749,55.532 C23.5100406,55.7373344 23.2487099,55.84 22.9313749,55.84 L14.6433749,55.84 C14.32604,55.84 14.0647093,55.7373344 13.8593749,55.532 C13.6540406,55.3266656 13.5513749,55.0653349 13.5513749,54.748 L13.1873749,29.464 L6.71937494,20.336 L6.71937494,16.724 L4.14337494,16.724 L4.14337494,7.176 C4.14337494,7.0826662 4.19004114,6.96133408 4.28337494,6.812 C4.43270902,6.69999944 4.56337438,6.644 4.67537494,6.644 L16.6313749,6.644 C16.9860434,6.644 17.2847071,6.77466536 17.5273749,7.036 C17.7700428,7.29733464 17.8913749,7.60533156 17.8913749,7.96 L17.8913749,17.844 L22.3433749,24.312 L22.5113749,18.6 L22.5113749,16.724 L19.8233749,16.724 L19.8233749,7.176 C19.8233749,7.0826662 19.8700411,6.96133408 19.9633749,6.812 C20.0940423,6.69999944 20.2340409,6.644 20.3833749,6.644 L32.8713749,6.644 C33.2073766,6.644 33.5013737,6.77933198 33.7533749,7.05 C34.0053762,7.32066802 34.1313749,7.62399832 34.1313749,7.96 L34.1313749,21.512 C34.1313749,22.4826715 34.056709,23.3226631 33.9073749,24.032 Z" id="כל-הארץ" fill="#120A33"></path>
                <path d="M263.684375,273.238 C263.33904,274.442006 262.793045,275.519995 262.046375,276.472 C261.187704,277.573339 260.077048,278.436664 258.714375,279.062 C257.351702,279.687336 255.709051,280 253.786375,280 L241.802375,280 C241.653041,280 241.527042,279.948667 241.424375,279.846 C241.321708,279.743333 241.270375,279.617334 241.270375,279.468 L241.270375,269.052 C241.270375,268.921333 241.321708,268.809334 241.424375,268.716 C241.527042,268.622666 241.653041,268.576 241.802375,268.576 L250.734375,268.576 C251.425045,268.576 252.003706,268.268003 252.470375,267.652 L252.470375,250.544 L242.222375,250.544 C242.073041,250.544 241.947042,250.492667 241.844375,250.39 C241.741708,250.287333 241.690375,250.180001 241.690375,250.068 L241.690375,239.232 C241.690375,239.101333 241.741708,238.984667 241.844375,238.882 C241.947042,238.779333 242.073041,238.728 242.222375,238.728 L263.670375,238.728 C263.819709,238.728 263.945708,238.779333 264.048375,238.882 C264.151042,238.984667 264.202375,239.101333 264.202375,239.232 L264.202375,269.584 C264.202375,270.816006 264.02971,272.033994 263.684375,273.238 Z M227.136375,238.672 C227.50971,238.672 227.82704,238.807332 228.088375,239.078 C228.34971,239.348668 228.480375,239.661332 228.480375,240.016 L228.480375,269.444 C228.443041,269.537334 228.312376,269.723999 228.088375,270.004 C227.65904,270.526669 226.903047,271.394661 225.820375,272.608 L224.336375,274.26 L220.304375,278.656 C219.93104,279.029335 219.520377,279.327999 219.072375,279.552 C218.549706,279.832001 218.111043,279.972 217.756375,279.972 L206.724375,279.972 C206.313706,279.972 206.108375,279.822668 206.108375,279.524 C206.108375,279.262665 206.257707,278.973335 206.556375,278.656 L216.664375,267.232 C217.280378,266.54133 217.737707,265.692005 218.036375,264.684 C218.279043,263.881329 218.400375,263.200003 218.400375,262.64 L218.400375,252.476 C218.400375,251.542662 218.195044,250.898668 217.784375,250.544 C217.504374,250.301332 217.103044,250.18 216.580375,250.18 L205.912375,250.18 C205.520373,250.18 205.19371,250.054001 204.932375,249.802 C204.67104,249.549999 204.540375,249.228002 204.540375,248.836 L204.540375,233.52 C204.540375,233.127998 204.67104,232.801335 204.932375,232.54 C205.19371,232.278665 205.520373,232.148 205.912375,232.148 L213.668375,232.148 C214.023043,232.148 214.335707,232.278665 214.606375,232.54 C214.877043,232.801335 215.012375,233.127998 215.012375,233.52 L215.012375,238.672 L227.136375,238.672 Z M154.412375,279.748 C154.412375,279.822667 154.384375,279.883333 154.328375,279.93 C154.272375,279.976667 154.216375,280 154.160375,280 L143.240375,280 C143.035041,280 142.932375,279.916001 142.932375,279.748 L142.932375,250.46 L129.100375,250.46 C129.007041,250.46 128.932375,250.432 128.876375,250.376 C128.820375,250.32 128.792375,250.264 128.792375,250.208 L128.792375,238.924 C128.792375,238.755999 128.895041,238.672 129.100375,238.672 L154.412375,238.672 L154.412375,279.748 Z M139.908375,256.844 C140.113709,256.844 140.216375,256.927999 140.216375,257.096 L140.216375,279.748 C140.216375,279.916001 140.113709,280 139.908375,280 L129.212375,280 C129.007041,280 128.904375,279.916001 128.904375,279.748 L128.904375,257.096 C128.904375,256.927999 129.007041,256.844 129.212375,256.844 L139.908375,256.844 Z M105.694375,239.05 C105.937043,239.302001 106.058375,239.614665 106.058375,239.988 L106.058375,269.612 C106.058375,270.844006 105.881043,272.066661 105.526375,273.28 C105.171707,274.493339 104.621045,275.575995 103.874375,276.528 C103.015704,277.629339 101.905048,278.492664 100.542375,279.118 C99.1797015,279.743336 97.5370512,280.056 95.6143749,280.056 L76.7143749,280.056 C76.5650409,280.056 76.4483754,280.004667 76.3643749,279.902 C76.2803745,279.799333 76.2383749,279.673334 76.2383749,279.524 L76.2383749,269.08 C76.2383749,268.725332 76.39704,268.548 76.7143749,268.548 L79.1223749,268.548 L79.1223749,248.864 L76.4903749,248.864 L76.4903749,239.204 C76.4903749,239.054666 76.5417078,238.928667 76.6443749,238.826 C76.7470421,238.723333 76.8730409,238.672 77.0223749,238.672 L89.1463749,238.672 C89.5010434,238.672 89.7997071,238.797999 90.0423749,239.05 C90.2850428,239.302001 90.4063749,239.614665 90.4063749,239.988 L90.4063749,268.548 L92.6183749,268.548 C93.2903783,268.548 93.8503727,268.268003 94.2983749,267.708 L94.2983749,248.864 L91.5823749,248.864 L91.5823749,239.204 C91.5823749,239.054666 91.6383744,238.928667 91.7503749,238.826 C91.8623755,238.723333 91.9930409,238.672 92.1423749,238.672 L104.798375,238.672 C105.153043,238.672 105.451707,238.797999 105.694375,239.05 Z M57.0003749,277.34 C57.0003749,278.08667 57.0097082,278.599999 57.0283749,278.88 L57.0563749,279.972 L31.0163749,279.972 C30.6617065,279.972 30.3583762,279.846001 30.1063749,279.594 C29.8543737,279.341999 29.7283749,279.038668 29.7283749,278.684 L29.7283749,239.904 C29.7283749,239.549332 29.8543737,239.255334 30.1063749,239.022 C30.3583762,238.788665 30.6617065,238.672 31.0163749,238.672 L55.0963749,238.672 C55.4510434,238.672 55.7543737,238.788665 56.0063749,239.022 C56.2583762,239.255334 56.3843749,239.549332 56.3843749,239.904 C56.3657082,239.904 56.3563749,240.27733 56.3563749,241.024 L56.4123749,245.924 L56.4683749,248.612 L56.5523749,254.072 L56.6643749,260.008 L56.7483749,264.824 L56.8883749,271.376 L56.9723749,275.828 L57.0003749,277.34 Z M47.0323749,252.392 C47.0323749,252.018665 46.9063762,251.706001 46.6543749,251.454 C46.4023737,251.201999 46.0990434,251.076 45.7443749,251.076 L41.4883749,251.076 C41.1337065,251.076 40.8303762,251.201999 40.5783749,251.454 C40.3263737,251.706001 40.2003749,252.018665 40.2003749,252.392 L40.2003749,267.596 C40.2003749,267.950668 40.3263737,268.253999 40.5783749,268.506 C40.8303762,268.758001 41.1337065,268.884 41.4883749,268.884 L45.7443749,268.884 C46.0990434,268.884 46.4023737,268.758001 46.6543749,268.506 C46.9063762,268.253999 47.0323749,267.950668 47.0323749,267.596 L47.0323749,252.392 Z" id="כל-העם" fill="#120A33"></path>
                <path d="M279.389708,88.8373333 C281.057272,89.5342257 282.538146,90.5048827 283.832375,91.7493333 C285.076826,93.043562 286.047483,94.5244361 286.744375,96.192 C287.441267,97.8595639 287.789708,99.614213 287.789708,101.456 L287.789708,196.581333 C287.789708,196.979558 287.652821,197.315554 287.379042,197.589333 C287.105263,197.863112 286.769266,198 286.371042,198 L256.952375,198 C256.554151,198 256.218154,197.863112 255.944375,197.589333 C255.670596,197.315554 255.533708,196.979558 255.533708,196.581333 L255.533708,125.2 C255.533708,124.303996 255.347044,123.470226 254.973708,122.698667 C254.600373,121.927107 254.065267,121.292447 253.368375,120.794667 L244.408375,120.794667 L244.408375,196.581333 C244.408375,196.979558 244.271488,197.315554 243.997708,197.589333 C243.723929,197.863112 243.387933,198 242.989708,198 L214.989708,198 C214.043926,198 213.571042,197.527116 213.571042,196.581333 L213.571042,89.2106667 C213.571042,88.2648842 214.043926,87.792 214.989708,87.792 L274.125708,87.792 C275.967495,87.792 277.722145,88.140441 279.389708,88.8373333 Z M188.643042,92.048 C189.837714,93.3920067 190.758594,94.9475467 191.405708,96.7146667 C192.052823,98.4817866 192.376375,100.33599 192.376375,102.277333 L192.376375,119.450667 L189.987042,119.450667 L181.923042,137.818667 C181.823486,138.117335 181.773708,138.341333 181.773708,138.490667 C181.773708,138.839113 181.873263,139.137777 182.072375,139.386667 L191.704375,154.544 C192.003043,154.743112 192.152375,155.215996 192.152375,155.962667 C192.152375,156.261335 192.127486,156.485333 192.077708,156.634667 L180.056375,196.581333 L179.832375,197.029333 C179.782597,197.128889 179.633265,197.30311 179.384375,197.552 L179.235042,197.701333 C178.936373,197.800889 178.687487,197.850667 178.488375,197.850667 L151.309708,197.850667 C150.612816,197.850667 150.339041,197.42756 150.488375,196.581333 L160.792375,161.189333 C160.842153,161.039999 160.867042,160.865779 160.867042,160.666667 C160.867042,160.119108 160.71771,159.671113 160.419042,159.322667 L150.637708,142.821333 C150.488374,142.522665 150.413708,142.124447 150.413708,141.626667 C150.413708,141.178664 150.488374,140.805335 150.637708,140.506667 L159.000375,119.6 L150.787042,119.6 L150.787042,91.152 C150.787042,90.2062175 151.085705,89.4222253 151.683042,88.8 C152.280378,88.1777747 153.002148,87.8666667 153.848375,87.8666667 L179.757708,87.8666667 C183.192392,87.8666667 186.15414,89.2604305 188.643042,92.048 Z M125.067041,88.7253333 C126.411048,89.2977806 127.580814,90.0817728 128.576375,91.0773333 C130.71683,93.2177885 131.787041,95.7564298 131.787041,98.6933333 L131.787041,151.109333 C131.787041,151.856004 131.538155,152.453331 131.040375,152.901333 C130.542594,153.349336 129.920378,153.573333 129.173708,153.573333 L104.757708,153.573333 C104.110594,153.573333 103.525711,153.336891 103.003041,152.864 C102.480372,152.391109 102.219041,151.806226 102.219041,151.109333 L102.219041,119.301333 L100.576375,119.301333 C99.8794823,119.301333 99.2945993,119.040003 98.821708,118.517333 C98.3488168,117.994664 98.1123747,117.409781 98.1123747,116.762667 L98.1123747,90.3306667 C98.1123747,89.6337743 98.3488168,89.0488913 98.821708,88.576 C99.2945993,88.1031087 99.8794823,87.8666667 100.576375,87.8666667 L120.811041,87.8666667 C122.304382,87.8666667 123.723035,88.152886 125.067041,88.7253333 Z M82.301708,93.392 L82.301708,112.88 C82.301708,117.907581 82.3265967,122.039095 82.3763747,125.274667 L82.3763747,166.64 C82.3763747,179.731621 82.4012634,190.234627 82.4510414,198.149333 L53.7790414,198.149333 L53.7790414,118.181333 L44.893708,118.181333 C43.0519211,118.181333 41.3594935,119.201768 39.8163747,121.242667 C39.1194823,122.138671 38.5719323,123.146661 38.173708,124.266667 C37.7754838,125.386672 37.5763747,126.469328 37.5763747,127.514667 L37.5763747,182.917333 C37.5763747,184.958232 37.1781565,186.911991 36.381708,188.778667 C35.5852596,190.645343 34.4901595,192.275549 33.0963747,193.669333 C31.70259,195.063118 30.0599397,196.158218 28.1683747,196.954667 C26.2768097,197.751115 24.3106071,198.149333 22.269708,198.149333 L0.0190413806,198.149333 L0.0190413806,169.029333 L2.70704138,169.029333 C4.10082613,169.029333 5.39503541,168.581338 6.58970805,167.685333 C7.93371477,166.590217 8.60570805,165.24623 8.60570805,163.653333 L8.60570805,103.024 C8.60570805,100.983101 9.00392629,99.0293427 9.80037471,97.1626667 C10.5968231,95.2959907 11.6919233,93.6657847 13.085708,92.272 C14.4794928,90.8782153 16.1096987,89.7831151 17.9763747,88.9866667 C19.8430507,88.1902182 21.796809,87.792 23.837708,87.792 L81.629708,87.792 C82.0279323,87.792 82.2270414,88.065775 82.2270414,88.6133333 C82.2768194,89.7582279 82.301708,91.3511009 82.301708,93.392 Z" id="חזית" fill="#EC2600"></path>
                <path d="M286.159708,427.088 C286.159708,427.934226 285.873489,428.643553 285.301041,429.216 C284.728594,429.788447 284.019268,430.074667 283.173041,430.074667 L207.610375,430.074667 C206.764148,430.074667 206.054822,429.788447 205.482375,429.216 C204.909928,428.643553 204.623708,427.934226 204.623708,427.088 L204.623708,402.373333 C204.623708,401.527107 204.909928,400.817781 205.482375,400.245333 C206.054822,399.672886 206.764148,399.386667 207.610375,399.386667 L246.213041,399.386667 L211.866375,363.397333 L211.866375,347.269333 L204.623708,347.269333 L204.623708,321.509333 C204.623708,321.160887 204.698374,320.887112 204.847708,320.688 L205.295708,320.165333 C205.445042,320.165333 205.619263,320.115556 205.818375,320.016 C206.017487,319.916444 206.166819,319.866667 206.266375,319.866667 L238.597041,319.866667 C239.741936,319.866667 240.637927,320.202663 241.285041,320.874667 C241.932156,321.54667 242.255708,322.405328 242.255708,323.450667 L242.255708,350.554667 L254.799708,364.741333 L254.799708,347.269333 L247.183708,347.269333 L247.183708,321.509333 C247.183708,321.210665 247.24593,320.949334 247.370375,320.725333 C247.49482,320.501332 247.656596,320.314667 247.855708,320.165333 C248.005042,320.165333 248.179263,320.115556 248.378375,320.016 C248.577487,319.916444 248.751707,319.866667 248.901041,319.866667 L282.874375,319.866667 C283.770379,319.866667 284.541927,320.202663 285.189041,320.874667 C285.836156,321.54667 286.159708,322.405328 286.159708,323.450667 L286.159708,357.424 C286.159708,359.813345 285.93571,362.078212 285.487708,364.218667 C284.641482,368.350243 283.073497,371.660432 280.783708,374.149333 C277.747249,377.534239 273.491291,379.226667 268.015708,379.226667 L286.159708,397.370667 L286.159708,427.088 Z M184.137042,399.162667 L184.137042,429.104 C184.137042,429.651558 183.913044,429.925333 183.465042,429.925333 L109.769042,429.925333 C109.420596,429.925333 109.246375,429.651558 109.246375,429.104 L109.246375,399.162667 C109.246375,398.714664 109.420596,398.490667 109.769042,398.490667 L146.579709,398.490667 L146.579709,375.418667 L145.982375,358.096 C145.982375,353.516422 143.841952,351.226667 139.561042,351.226667 L109.097042,351.226667 L109.097042,322.330667 C109.097042,321.583996 109.296151,320.999113 109.694375,320.576 C110.092599,320.152887 110.590372,319.941333 111.187709,319.941333 L164.574375,319.941333 C165.868604,319.941333 167.175257,320.327107 168.494375,321.098667 C169.813493,321.870226 171.020592,322.878216 172.115709,324.122667 C173.161047,325.367117 174.007261,326.661327 174.654375,328.005333 C175.30149,329.34934 175.625042,330.618661 175.625042,331.813333 L175.625042,398.490667 L183.465042,398.490667 C183.913044,398.490667 184.137042,398.714664 184.137042,399.162667 Z M81.9650422,319.792 C83.0601588,319.792 84.0183715,320.202663 84.8397089,321.024 C85.6610463,321.845337 86.0717089,322.828439 86.0717089,323.973333 L86.0717089,344.730667 C85.9721529,351.500478 85.9223756,357.423975 85.9223756,362.501333 C85.9223756,366.184907 85.9472642,368.773326 85.9970422,370.266667 C85.9970422,372.755568 86.0219309,374.248886 86.0717089,374.746667 C86.0717089,376.488898 85.7232679,377.73333 85.0263756,378.48 C84.4788173,379.127114 83.3339398,379.848885 81.5917089,380.645333 L77.2610422,382.661333 L74.1250422,384.154667 C73.627262,384.353779 73.2290437,384.540444 72.9303756,384.714667 C72.6317074,384.88889 72.4574869,385.15022 72.4077089,385.498667 L72.4077089,385.797333 C72.4077089,386.195558 72.5072635,386.618664 72.7063756,387.066667 C72.9054877,387.664003 73.4779264,388.559994 74.4237089,389.754667 L83.8317089,402.074667 C85.0263815,402.771559 85.7730407,403.717327 86.0717089,404.912 L86.0717089,425.669333 C86.0717089,426.864006 85.6610463,427.88444 84.8397089,428.730667 C84.0183715,429.576893 83.0601588,430 81.9650422,430 L49.4850422,430 C48.2903696,430 47.3072683,429.576893 46.5357089,428.730667 C45.7641495,427.88444 45.3783756,426.864006 45.3783756,425.669333 L45.3783756,405.733333 C45.3783756,404.737773 45.6894836,403.86667 46.3117089,403.12 C46.9339342,402.37333 47.742815,401.900445 48.7383756,401.701333 L41.1970422,392.144 C40.0521476,390.799993 38.8823815,390.128 37.6877089,390.128 C36.8912605,390.128 36.2192672,390.364442 35.6717089,390.837333 C35.1241506,391.310225 34.8254869,391.895108 34.7757089,392.592 C34.7757089,393.33867 34.7632646,393.911109 34.7383756,394.309333 C34.7134866,394.707558 34.7010422,395.055999 34.7010422,395.354667 C34.6512642,395.603557 34.6263756,395.976886 34.6263756,396.474667 C34.6263756,396.723557 34.6761529,397.295996 34.7757089,398.192 L35.1490422,399.984 C35.2983763,400.780448 35.59704,401.253333 36.0450422,401.402667 C36.3437104,401.502223 36.6672627,401.552 37.0157089,401.552 C38.1606035,401.552 39.1437048,401.962663 39.9650422,402.784 C40.7863797,403.605337 41.1970422,404.588439 41.1970422,405.733333 L41.1970422,425.669333 C41.1970422,426.864006 40.7863797,427.88444 39.9650422,428.730667 C39.1437048,429.576893 38.1606035,430 37.0157089,430 L10.0610422,430 C8.91614763,430 7.93304635,429.576893 7.11170891,428.730667 C6.29037147,427.88444 5.87970891,426.864006 5.87970891,425.669333 L5.87970891,412.901333 C5.78015285,405.633741 5.73037557,400.705791 5.73037557,398.117333 L5.73037557,386.394667 C5.73037557,384.353768 5.75526421,382.960004 5.80504224,382.213333 C5.80504224,381.018661 5.82993088,380.346667 5.87970891,380.197333 C5.97926496,379.599997 6.02904224,378.977781 6.02904224,378.330667 C6.02904224,376.48888 6.25304,374.920895 6.70104224,373.626667 C6.94993237,372.929774 7.37303925,372.382224 7.97037557,371.984 C9.36416032,371.336886 10.6583696,370.664892 11.8530422,369.968 C13.4459391,369.071996 14.8148143,368.325336 15.9597089,367.728 C16.8557134,367.23022 17.5277067,366.76978 17.9757089,366.346667 C18.4237111,365.923553 18.6477089,365.438225 18.6477089,364.890667 C18.6477089,364.094218 18.1748247,363.123561 17.2290422,361.978667 L5.87970891,347.418667 L5.87970891,323.973333 C5.87970891,322.828439 6.29037147,321.845337 7.11170891,321.024 C7.93304635,320.202663 8.91614763,319.792 10.0610422,319.792 L42.4663756,319.792 C43.6610482,319.792 44.6814825,320.202663 45.5277089,321.024 C46.3739354,321.845337 46.7970422,322.828439 46.7970422,323.973333 L46.7970422,343.909333 C46.7970422,345.104006 46.3739354,346.099552 45.5277089,346.896 C44.6814825,347.692448 43.6610482,348.090667 42.4663756,348.090667 L42.3170422,348.090667 L50.0077089,358.096 C51.2521596,359.688897 52.5463689,360.709331 53.8903756,361.157333 C54.2388218,361.306667 54.6121514,361.381333 55.0103756,361.381333 C56.1054922,361.381333 56.87704,360.510231 57.3250422,358.768 C57.7730445,357.473771 58.0219309,356.254228 58.0717089,355.109333 C58.1214869,354.362663 58.1712642,353.715558 58.2210422,353.168 C58.2708203,352.620442 58.3205975,352.147558 58.3703756,351.749333 C58.4201536,351.450665 58.4450422,351.052447 58.4450422,350.554667 C58.4450422,349.21066 58.0219354,348.389335 57.1757089,348.090667 C55.9810363,348.090667 54.9854907,347.692448 54.1890422,346.896 C53.3925938,346.099552 52.9943756,345.104006 52.9943756,343.909333 L52.9943756,323.973333 C52.9943756,322.828439 53.3925938,321.845337 54.1890422,321.024 C54.9854907,320.202663 55.9810363,319.792 57.1757089,319.792 L81.9650422,319.792 Z" id="צבא" fill="#120A33"></path>
            </g>
        </g>
    </g>
</svg>