<?xml version="1.0" encoding="UTF-8"?>
<svg width="500px" height="700px" viewBox="0 0 500 700" version="1.1" xmlns="http://www.w3.org/2000/svg" xmlns:xlink="http://www.w3.org/1999/xlink">
    <!-- Generator: Sketch 45.2 (43514) - http://www.bohemiancoding.com/sketch -->
    <title>Formalin/Formalin-dislay</title>
    <desc>Created with Sketch.</desc>
    <defs></defs>
    <g id="Page-1" stroke="none" stroke-width="1" fill="none" fill-rule="evenodd">
        <g id="Formalin/Formalin-dislay">
            <path d="M20,20 L480,20 L480,650 L20,650 L20,20 Z M458.781172,351.063265 C457.553426,352.514237 456.381504,354.969692 455.265372,358.429703 C454.260853,361.499067 453.395863,364.875318 452.670377,368.558555 C451.833277,372.632439 451.079899,376.929485 450.410219,381.449822 L412.406095,381.700951 L412.322386,381.449822 L386.707271,381.449822 C385.925978,381.449822 385.535338,381.170793 385.535338,380.612727 C385.535338,380.333694 385.619047,380.082568 385.786466,379.859341 L386.121305,379.105955 C387.795503,375.478525 389.120891,371.29309 390.097507,366.549527 C391.074123,361.805963 391.562424,356.755539 391.562424,351.398103 L391.562424,351.063265 C391.506617,350.114552 391.576374,349.430931 391.771697,349.012381 C391.967021,348.593832 392.511127,348.38456 393.404033,348.38456 L420.944467,348.38456 C426.69255,348.38456 430.989595,346.06862 433.835734,341.436669 C436.179612,337.530205 437.770077,331.754306 438.607176,324.108798 C438.88621,321.653306 439.193141,318.02593 439.527981,313.22656 L440.281367,301.758355 C440.504593,299.35867 440.616205,296.847409 440.616205,294.224497 C440.616205,286.913829 439.639604,281.13793 437.686372,276.896626 C436.514432,274.385328 435.04953,272.515834 433.291622,271.288088 C431.533713,270.060342 429.594462,269.446478 427.47381,269.446478 C424.906705,269.446478 422.660522,269.544138 420.735193,269.739462 C418.809864,269.934785 417.03803,270.395183 415.419638,271.120669 C413.4106,271.957768 411.834086,273.185496 410.69005,274.803888 C409.546014,276.42228 408.890296,278.570803 408.722876,281.249521 C408.611263,283.25856 409.141418,284.932734 410.313357,286.272093 C411.485296,287.611452 412.992053,288.671762 414.833671,289.453055 C416.396257,290.122734 417.819305,290.541278 419.102857,290.708697 C420.274796,290.876117 420.88866,290.931923 420.944467,290.876116 C419.772528,293.722255 418.851732,297.740272 418.182052,302.930288 C417.679793,306.725139 417.372861,310.771059 417.261248,315.068169 C417.205441,316.184302 417.177538,317.523641 417.177538,319.086226 C417.177538,320.146552 417.205441,320.70461 417.261248,320.760417 C415.921889,320.648804 414.97319,320.592998 414.415124,320.592998 C411.010919,320.592998 407.467252,321.430085 403.784014,323.104283 C401.830782,323.99719 400.240317,324.862179 399.012571,325.699279 C397.282566,326.815411 396.082741,327.540887 395.413062,327.875726 C394.854995,328.266373 394.101617,328.461693 393.152905,328.461693 C391.925159,328.461693 390.892752,328.04315 390.055652,327.20605 C389.218553,326.368951 388.800009,325.336544 388.800009,324.108798 C388.800009,322.713632 389.246456,321.653322 390.139362,320.927836 C390.474201,320.481383 390.739279,319.881471 390.934602,319.128081 C391.129925,318.374692 391.227586,317.718973 391.227586,317.160907 C391.450812,311.189598 392.148384,303.320981 393.320324,293.554821 C394.157423,286.29996 395.552568,280.663575 397.5058,276.645497 C398.287093,275.027105 399.193937,273.673815 400.226359,272.585585 C401.258782,271.497356 402.472558,270.450998 403.867724,269.446478 L396.333867,269.446478 C395.496767,269.446478 394.785243,269.153498 394.199274,268.567528 C393.613304,267.981559 393.320324,267.270035 393.320324,266.432935 L393.320324,232.949125 C393.320324,231.55396 393.906284,230.577358 395.078224,230.019292 C395.747903,229.740259 396.278058,229.600744 396.668705,229.600744 C397.170964,229.600744 397.617411,229.712356 398.008057,229.935583 L398.677733,230.270421 C399.291606,230.77268 399.933373,231.414447 400.603052,232.19574 C402.388864,234.316392 403.923524,235.767342 405.207076,236.548635 C405.988369,237.106701 406.937067,237.38573 408.0532,237.38573 L442.625234,237.38573 C443.462333,237.38573 444.132003,237.497342 444.634262,237.720568 C447.257174,237.943795 449.126668,239.311037 450.2428,241.822335 C451.0799,243.663954 451.693764,246.23102 452.08441,249.523611 C452.25183,250.695551 452.391344,252.174404 452.502958,253.960216 L453.591181,273.799373 L454.679405,299.498198 L455.5165,320.676707 C455.572307,322.406713 455.60021,324.248304 455.60021,326.201536 C455.60021,328.489608 455.907142,331.837955 456.521015,336.246679 L457.2744,341.436669 L458.613753,349.472784 L458.781172,351.063265 Z M375.406485,290.541278 L375.406485,295.145302 C375.406485,307.645987 375.685514,317.830544 376.243581,325.699279 C376.91326,336.637378 377.917764,344.17116 379.257124,348.30085 C379.14551,348.30085 378.922287,348.831005 378.587447,349.891331 C377.582928,352.625856 376.606327,356.002107 375.657614,360.020184 C374.318255,365.71246 373.341654,370.344341 372.727781,373.915965 C372.337134,376.14823 372.086008,378.213044 371.974395,380.11047 C371.974395,380.166276 371.946492,380.194179 371.890685,380.194179 C371.834879,380.640632 371.75117,380.919661 371.639557,381.031274 C371.527944,381.142888 371.30472,381.198694 370.969881,381.198694 L362.180381,381.198694 C361.901347,381.142887 361.664173,381.003372 361.46885,380.780146 C361.273526,380.556919 361.175866,380.305793 361.175866,380.02676 L361.175866,273.631954 C361.175866,272.404209 360.771274,271.385753 359.962078,270.576557 C359.152882,269.767361 358.162329,269.362769 356.99039,269.362769 L344.433961,269.362769 C343.596862,269.362769 342.885338,269.069788 342.299368,268.483819 C341.713399,267.897849 341.420418,267.186325 341.420418,266.349226 L341.420418,232.781706 C341.420418,231.553961 342.006379,230.605262 343.178318,229.935583 C343.847998,229.656549 344.406056,229.517035 344.852509,229.517035 C345.354769,229.517035 345.801215,229.628647 346.191861,229.851873 L346.861538,230.186711 C347.47541,230.688971 348.117177,231.330737 348.786857,232.11203 C350.405249,234.121069 351.912005,235.572019 353.307171,236.464926 C354.200077,237.022992 355.176678,237.302021 356.237004,237.302021 L370.049076,237.302021 C371.723275,237.302021 373.146322,237.887982 374.318262,239.059921 C375.490201,240.23186 376.076162,241.654908 376.076162,243.329107 L376.076162,256.72263 C375.629709,269.390735 375.406485,280.663505 375.406485,290.541278 Z M332.37979,333.735393 C332.435596,336.135078 332.603014,338.423116 332.882047,340.599574 L333.719142,350.393588 C333.774949,351.398108 333.774949,351.928263 333.719142,351.984069 C332.323976,354.830207 331.124152,357.84372 330.119633,361.024698 C329.226727,363.759223 328.361737,366.968056 327.524637,370.651293 C326.799151,373.832271 326.101579,377.431745 325.431899,381.449822 L323.088033,381.449822 C322.250933,381.449822 321.637069,381.421919 321.246423,381.366113 L318.23288,381.366113 C317.395781,381.366113 316.781917,380.919666 316.391271,380.02676 C316.112237,379.468694 315.972723,378.687413 315.972723,377.682893 L316.056432,373.581127 C316.056432,370.121116 316.084335,367.191312 316.140142,364.791627 C316.140142,359.76903 316.168045,355.751013 316.223852,352.737455 L316.391271,338.590545 L316.642399,323.69025 C316.809819,315.654096 316.893528,308.259828 316.893528,301.507226 C316.949334,300.391094 316.977237,298.828531 316.977237,296.819493 C316.977237,292.243349 317.00514,289.146128 317.060947,287.527736 L317.060947,283.844516 C317.060947,283.230644 317.08885,282.784197 317.144656,282.505164 L317.144656,276.561788 C317.144656,274.664362 316.447084,272.962286 315.051918,271.455507 C313.545139,270.060341 311.843063,269.362769 309.945637,269.362769 L279.47537,269.362769 C278.638271,269.362769 277.926747,269.069788 277.340777,268.483819 C276.754808,267.897849 276.461827,267.186325 276.461827,266.349226 L276.461827,232.781706 C276.461827,231.553961 277.047788,230.605262 278.219727,229.935583 C278.889407,229.656549 279.447465,229.517035 279.893918,229.517035 C280.396177,229.517035 280.842624,229.628647 281.23327,229.851873 C281.40069,229.90768 281.526253,229.963485 281.609963,230.019292 C281.693673,230.075099 281.76343,230.130905 281.819237,230.186711 C282.43311,230.688971 283.074876,231.330737 283.744556,232.11203 C285.530368,234.232682 287.065027,235.683633 288.34858,236.464926 C289.241486,237.022992 290.218087,237.302021 291.278413,237.302021 L325.766737,237.302021 C327.496743,237.302021 328.933742,237.887982 330.077778,239.059921 C331.221814,240.23186 331.793823,241.654908 331.793823,243.329107 L331.793823,319.923322 C331.793823,323.662366 331.989143,328.266343 332.37979,333.735393 Z M266.584103,353.993098 C266.026037,356.169557 265.300562,359.657419 264.407656,364.456789 C263.403136,369.814225 262.76137,373.999659 262.482337,377.013217 C262.370723,378.46419 262.314918,379.412888 262.314918,379.859341 L262.398627,381.449822 L260.557018,381.449822 C259.831531,381.505629 258.631707,381.533532 256.957508,381.533532 L251.767518,381.533532 L251.683808,381.449822 L219.288222,381.449822 C218.506929,381.449822 218.116289,381.14289 218.116289,380.529017 C218.116289,380.249984 218.283706,379.719829 218.618546,378.938536 C220.348551,375.366912 221.68789,371.223332 222.636603,366.507672 C223.585316,361.792012 224.059665,356.727636 224.059665,351.314393 L224.059665,351.063265 C224.059665,350.002939 224.157325,349.277463 224.352648,348.886817 C224.547971,348.496171 225.092078,348.30085 225.984984,348.30085 L231.091265,348.30085 C232.542237,348.30085 233.63045,348.272947 234.355936,348.217141 C236.923041,348.105528 239.211079,348.049722 241.220117,348.049722 C242.392057,348.049722 243.494221,347.631178 244.526644,346.794079 C245.559066,345.956979 246.46591,344.785058 247.247203,343.278279 C248.809789,340.264721 249.59107,336.665247 249.59107,332.47975 L249.59107,326.034117 C249.59107,320.286034 249.367847,312.947572 248.921394,304.018512 C248.474941,295.256871 247.582048,288.002118 246.242689,282.254035 C245.573009,279.575317 244.638262,277.496552 243.43842,276.017676 C242.238577,274.5388 240.662064,273.213413 238.708832,272.041473 C237.146246,271.148567 235.555781,270.702121 233.937389,270.702121 C231.816737,270.702121 229.863534,271.511305 228.077722,273.129697 C226.570943,274.469056 225.245556,276.589676 224.10152,279.491621 C222.957484,282.393566 221.659999,286.299971 220.209027,291.210955 C217.865148,299.247109 216.693227,309.766501 216.693227,322.769445 C216.693227,329.522047 217.167576,338.032431 218.116289,348.30085 C216.832736,353.43506 215.744523,358.206455 214.851617,362.615179 L213.679684,368.307427 C212.898391,372.102277 212.340333,375.422722 212.005493,378.26886 C211.838074,379.775639 211.782268,380.835949 211.838074,381.449822 L201.206965,381.449822 L201.206965,343.445698 C201.206965,332.172759 201.709217,321.764979 202.713736,312.222045 C203.885675,301.228139 205.643558,292.355019 207.987436,285.602416 C210.945188,277.008196 214.712078,271.678743 219.288222,269.613897 L219.288222,269.530188 L219.371932,269.362769 L200.955836,269.362769 C200.118737,269.362769 199.407213,269.069788 198.821243,268.483819 C198.235274,267.897849 197.942293,267.186325 197.942293,266.349226 L197.942293,232.781706 C197.942293,231.553961 198.528254,230.605262 199.700193,229.935583 C200.369873,229.656549 200.955834,229.517035 201.458093,229.517035 C201.960353,229.517035 202.406799,229.628647 202.797446,229.851873 C202.964866,229.90768 203.090429,229.963485 203.174139,230.019292 C203.257848,230.075099 203.327606,230.130905 203.383412,230.186711 C203.997285,230.688971 204.639052,231.330737 205.308731,232.11203 C207.094544,234.232682 208.629203,235.683633 209.912755,236.464926 C210.694048,237.022992 211.642747,237.302021 212.758879,237.302021 L222.050636,237.302021 C223.724835,237.302021 225.147883,237.887982 226.319822,239.059921 C227.491761,240.23186 228.077722,241.654908 228.077722,243.329107 L228.077722,252.118607 C228.691595,251.114087 229.528682,249.830554 230.589008,248.267968 C232.2074,245.92409 233.993185,243.273315 235.946417,240.315564 C236.783517,239.032011 237.341575,238.027507 237.620608,237.302021 L259.719922,237.302021 C261.505735,239.478479 262.928782,242.826827 263.989108,247.347164 C264.491368,249.579429 264.742494,252.341816 264.742494,255.634407 L264.742494,265.344711 C264.686687,267.52117 264.658784,270.562586 264.658784,274.46905 L264.658784,282.086616 C264.658784,284.821141 264.686687,286.634829 264.742494,287.527736 C264.798301,287.750962 264.826203,288.225311 264.826203,288.950797 L264.658784,295.396431 L264.407656,307.366893 C264.351849,309.599158 264.323946,313.031214 264.323946,317.663164 C264.323946,325.531899 264.519267,332.368108 264.909913,338.171998 C265.244753,344.75718 265.970228,349.444867 267.086361,352.235198 C266.974747,352.291005 266.80733,352.876965 266.584103,353.993098 Z M129.300483,212.942549 C129.300483,209.928991 130.360793,208.422235 132.481445,208.422235 C133.541771,208.422235 134.964819,209.008196 136.750631,210.180135 C137.531924,210.905621 138.759651,211.742708 140.43385,212.691421 C142.108049,213.640133 143.893834,214.449317 145.791259,215.118997 C148.135138,216.011903 150.395272,216.458349 152.571731,216.458349 C154.859803,216.458349 156.924617,215.956097 158.766236,214.951578 C160.663661,213.947058 162.170418,212.956506 163.28655,211.97989 C164.402683,211.003274 165.462993,209.929012 166.467512,208.757073 C167.192998,207.80836 167.848716,207.138691 168.434686,206.748044 C169.020655,206.357398 169.787985,206.162078 170.736698,206.162078 C171.797024,206.162078 172.885237,206.496912 174.001369,207.166592 C175.117502,207.836271 176.484744,208.812873 178.103136,210.096425 C179.721528,211.379978 181.172479,212.426336 182.456031,213.235532 C183.739584,214.044729 185.078923,214.616738 186.474088,214.951578 C187.869254,215.286417 188.88771,215.816572 189.529486,216.542059 C190.171262,217.267545 190.492146,218.048826 190.492146,218.885925 C190.492146,219.723025 190.199165,220.560112 189.613196,221.397211 C189.027226,222.234311 188.259896,222.90398 187.311184,223.40624 C186.529891,223.741079 185.74861,224.159623 184.967317,224.661883 L183.293126,225.498978 C180.949248,226.838337 179.191366,227.814938 178.019426,228.428811 C176.680067,229.098491 175.45234,229.76816 174.336207,230.43784 L171.406374,232.028321 C169.118302,232.86542 166.439624,233.200255 163.37026,233.032835 C161.751867,232.977028 159.840519,232.656145 157.636157,232.070175 C155.431795,231.484206 153.325127,230.800585 151.316088,230.019292 C151.037055,229.907679 150.227871,229.62865 148.888512,229.182197 C145.986567,228.121871 144.144976,227.53591 143.363683,227.424297 L143.112555,227.424297 C142.498682,227.424297 142.219653,227.675423 142.275459,228.177683 C142.275459,230.242528 142.6661,232.056216 143.447393,233.618802 C144.675139,236.074293 146.963176,237.302021 150.311574,237.302021 L184.297641,237.302021 C186.976359,237.302021 189.096979,238.529748 190.659565,240.98524 C191.88731,243.050085 192.501174,245.393928 192.501174,248.01684 L192.501174,251.197802 C192.445368,252.090708 192.417465,253.569561 192.417465,255.634407 L192.082627,265.428421 L191.915207,269.362769 C191.803594,270.925354 191.747788,271.678732 191.747788,271.622926 C191.691982,272.013572 191.608273,272.934368 191.49666,274.38534 C191.16182,278.012771 190.631665,282.030788 189.906179,286.439512 C189.069079,291.462108 187.72974,296.205601 185.888122,300.670131 C184.883602,303.014009 183.823292,304.827697 182.70716,306.11125 C179.581989,309.906101 176.735893,313.784603 174.168788,317.746874 C170.708777,323.215923 168.002196,328.322153 166.048964,333.065717 C163.593473,339.092833 162.477357,344.17116 162.700583,348.30085 L161.779779,350.393588 C159.77074,354.579086 158.012858,358.401782 156.506079,361.861793 C154.1622,367.330843 152.404318,372.074335 151.232379,376.092413 C150.618506,378.380484 150.311574,380.16627 150.311574,381.449822 C150.255767,381.505629 149.641903,381.533532 148.469964,381.533532 L144.619326,381.533532 C142.331254,381.533532 140.517566,381.505629 139.178207,381.449822 C139.1224,374.69722 139.540944,368.056331 140.43385,361.526955 C141.326756,355.053386 142.610289,349.193778 144.284488,343.947955 C146.40514,337.306966 149.111721,331.865902 152.404312,327.624598 C159.938207,317.691018 165.016534,310.519974 167.639445,306.11125 C170.485583,301.31188 172.215563,296.959028 172.829436,293.052564 C173.275889,290.039006 173.610724,287.137105 173.83395,284.346774 C173.945563,282.784188 174.001369,280.468248 174.001369,277.398883 C174.001369,274.887585 172.829448,272.906479 170.485569,271.455507 C168.197497,270.060341 165.407208,269.362769 162.114617,269.362769 L135.829826,269.362769 C133.318528,269.362769 131.560645,268.525682 130.556126,266.851483 C129.719027,265.56793 129.300483,263.642631 129.300483,261.075526 L129.300483,212.942549 Z M121.515497,261.745202 C121.850337,267.158445 122.017754,272.822733 122.017754,278.738235 C121.906141,284.709545 121.655015,289.229814 121.264369,292.299178 C120.427269,298.772747 119.7576,303.181405 119.25534,305.525283 C118.864694,307.422709 118.362442,308.929465 117.748569,310.045598 C117.190502,311.217537 116.465027,311.803498 115.572121,311.803498 C114.400182,311.803498 113.423581,311.831401 112.642288,311.887207 C109.46131,311.99882 107.34069,312.026723 106.280364,311.970917 C105.443264,311.970917 105.024721,311.915111 105.024721,311.803498 C105.638594,310.408332 106.168749,307.701751 106.615202,303.683674 L107.703426,291.210955 C108.038266,285.072225 108.205683,281.082111 108.205683,279.240493 C108.205683,275.668868 107.619722,273.073899 106.447783,271.455507 C105.443264,270.116148 103.880701,269.502284 101.76005,269.613897 L101.843759,269.362769 L89.4547494,269.362769 C88.61765,269.362769 87.9061261,269.069788 87.3201565,268.483819 C86.7341869,267.897849 86.4412065,267.186325 86.4412065,266.349226 L86.4412065,232.781706 C86.4412065,231.553961 87.0271673,230.605262 88.1991065,229.935583 C88.8687861,229.656549 89.426844,229.517035 89.873297,229.517035 C90.3755567,229.517035 90.822003,229.628647 91.2126494,229.851873 C91.3800693,229.90768 91.5056323,229.963485 91.5893423,230.019292 C91.6730522,230.075099 91.7428095,230.130905 91.7986161,230.186711 C92.412489,230.688971 93.0542556,231.330737 93.7239352,232.11203 C95.5097473,234.232682 97.0444066,235.683633 98.327959,236.464926 C99.2208651,237.022992 100.197466,237.302021 101.257792,237.302021 L107.787135,237.302021 C110.410047,237.302021 112.75389,237.999593 114.818735,239.394759 C117.441647,241.347991 119.199529,244.333601 120.092435,248.351678 C120.650502,250.862976 121.124851,255.32744 121.515497,261.745202 Z M77.4842874,239.059921 C78.6562266,240.23186 79.2421874,241.654908 79.2421874,243.329107 L79.2421874,260.40585 C79.2421874,263.363601 78.7957411,266.181793 77.902835,268.860512 C77.1215422,270.981163 76.3402611,272.543726 75.5589683,273.548245 C75.1125153,274.162118 74.6939719,274.66437 74.3033255,275.055016 C71.2339609,279.29632 68.9598749,283.774735 67.4809992,288.490395 C66.0021235,293.206055 65.0673765,298.326237 64.6767301,303.851093 C64.4535036,306.362391 64.341892,309.292195 64.341892,312.640593 C64.341892,314.203178 64.3976978,316.491216 64.5093111,319.504774 C64.676731,323.020592 64.8162454,328.350045 64.9278587,335.493293 C64.9278587,340.01363 65.374305,345.538403 66.2672111,352.067779 C66.7694708,356.309083 67.6902663,361.526924 69.0296254,367.72146 C70.2015646,373.246316 71.5409036,378.603672 73.0476826,383.793689 C71.3176771,385.021435 69.0296396,387.365278 66.1835016,390.825289 C63.8954298,393.559814 61.2167518,397.047676 58.1473872,401.288979 C55.3012491,405.139637 52.1761248,409.659906 48.7719205,414.849922 C45.7583625,412.89669 43.5261308,411.362031 42.0751585,410.245899 C41.2380591,409.687832 40.8195156,409.325095 40.8195156,409.157675 C46.3443719,403.297979 49.9438454,394.92711 51.6180443,384.044817 C52.2877238,379.412867 52.6225586,374.250831 52.6225586,368.558555 C52.6225586,359.852721 51.8412775,349.835582 50.2786919,338.506836 C49.3857858,332.089074 48.9393395,326.062048 48.9393395,320.425579 C48.9393395,315.849435 49.2741743,311.133846 49.9438538,306.278669 C51.0599864,298.800581 52.9294804,292.103886 55.552392,286.188383 C56.5011046,284.123538 57.3800459,282.421461 58.189242,281.082102 C58.9984381,279.742743 59.9331851,278.291792 60.993511,276.729207 C62.4444834,274.720168 63.4210848,272.990189 63.9233444,271.539216 C63.979151,271.371796 64.0070539,271.12067 64.0070539,270.785831 C64.0070539,270.004538 63.5327047,269.530189 62.583992,269.362769 L50.5298205,269.362769 C49.692721,269.362769 48.9811972,269.069788 48.3952276,268.483819 C47.809258,267.897849 47.5162776,267.186325 47.5162776,266.349226 L47.5162776,232.781706 C47.5162776,231.553961 48.1022384,230.605262 49.2741776,229.935583 C49.9996638,229.656549 50.5577217,229.517035 50.9483681,229.517035 C51.4506278,229.517035 51.8970741,229.628647 52.2877205,229.851873 L52.9573967,230.186711 C53.5712696,230.688971 54.2130362,231.330737 54.8827158,232.11203 C56.6685279,234.232682 58.2031871,235.683633 59.4867396,236.464926 C60.2680324,237.022992 61.2167309,237.302021 62.3328634,237.302021 L73.2151016,237.302021 C74.8893005,237.302021 76.3123482,237.887982 77.4842874,239.059921 Z" id="Rectangle-Copy-4" fill="#120A33"></path>
            <rect id="Rectangle-Copy" fill="#EC2600" x="20" y="650" width="460" height="30"></rect>
        </g>
    </g>
</svg>