<?xml version="1.0" encoding="UTF-8"?>
<svg width="500px" height="700px" viewBox="0 0 500 700" version="1.1" xmlns="http://www.w3.org/2000/svg" xmlns:xlink="http://www.w3.org/1999/xlink">
    <!-- Generator: Sketch 45.2 (43514) - http://www.bohemiancoding.com/sketch -->
    <title>HazitNarrow/HazitNarrow-dislay</title>
    <desc>Created with Sketch.</desc>
    <defs></defs>
    <g id="Page-1" stroke="none" stroke-width="1" fill="none" fill-rule="evenodd">
        <g id="HazitNarrow/HazitNarrow-dislay">
            <path d="M393.596463,128.235069 C397.134507,128.235069 400.419834,126.781943 402.75747,124.444307 C405.095106,122.106671 406.548231,118.821344 406.548231,115.2833 L406.548231,38.5203823 C406.548231,35.993208 405.66372,35.108697 402.947008,35.108697 L375.337629,35.108697 C372.557738,35.108697 371.736406,36.0563874 371.736406,38.5203823 L371.736406,48.8817968 C371.736406,51.5985091 372.999993,52.7357375 375.716705,52.7357375 L383.993201,52.7357375 C385.951761,52.7357375 387.08899,52.9252756 387.847142,53.6202485 C388.542115,54.3784008 388.731653,55.5156292 388.731653,57.5373686 L388.731653,105.806397 C388.731653,109.849876 387.278528,111.176642 383.424587,111.176642 L374.769015,111.176642 C371.989123,111.176642 370.978254,112.124333 370.978254,114.588328 L370.978254,124.823383 C370.978254,127.540096 371.989123,128.171889 374.705836,128.235069 L393.596463,128.235069 Z M364.660325,41.5529914 C364.660325,38.7099204 364.533966,37.0040777 363.586276,36.1195668 C362.638586,35.2350558 361.059102,35.108697 358.026493,35.108697 L347.349181,35.108697 C345.832877,35.108697 344.758828,35.0455177 344.063855,34.5400828 C343.368882,34.0978273 343.116164,33.150137 343.116164,31.381115 L343.116164,29.2330169 C343.116164,26.0108697 342.484371,25 339.514941,25 L331.80706,25 C329.027168,25 328.332195,26.0740491 328.332195,29.0434788 L328.332195,47.4918509 C328.332195,49.450411 328.584912,50.7771775 329.406244,51.5353297 C330.164396,52.3566614 331.491163,52.7357375 333.70244,52.7357375 L344.822007,52.7357375 C347.665078,52.7357375 348.802307,53.7466072 348.802307,56.716037 L348.802307,102.52107 C348.802307,104.163734 348.802307,105.427321 348.739127,106.311832 C348.612768,108.144033 347.854616,109.028544 346.085594,109.4708 L342.358012,110.228952 C340.399452,110.544849 339.388582,111.492539 339.325403,113.451099 L339.388582,125.202459 C339.388582,127.16102 340.65217,128.298248 342.61073,128.235069 L350.887225,128.235069 C354.677987,128.235069 358.089672,126.718764 360.616846,124.254769 C363.080841,121.790774 364.597146,118.379089 364.597146,114.588328 L364.660325,41.5529914 Z M292.193616,125.012921 C292.193616,126.971481 291.056387,128.235069 289.287365,128.235069 L277.536005,128.235069 C275.577445,128.235069 275.008831,126.971481 275.008831,125.012921 L275.008831,57.0319338 C274.819292,53.6834279 273.997961,52.7357375 270.523096,52.7357375 L255.107333,52.7357375 C253.401491,52.7357375 252.201083,51.219433 252.201083,49.6399491 L252.201083,38.2676649 C252.201083,36.4986429 253.527849,35.1718764 255.233692,35.108697 L286.82337,35.108697 C289.097827,35.108697 290.424594,35.3614145 291.245925,36.1195668 C292.004077,36.9408984 292.193616,38.2676649 292.193616,40.5421217 L292.193616,125.012921 Z M252.201083,74.7221536 C252.201083,72.7004142 253.780567,71.1209303 255.802306,71.1209303 L264.331519,71.1209303 C266.290079,71.1209303 267.932743,72.7004142 267.932743,74.7221536 L267.932743,124.633845 C267.932743,126.655585 266.290079,128.235069 264.331519,128.235069 L255.802306,128.235069 C253.780567,128.235069 252.201083,126.655585 252.201083,124.633845 L252.201083,74.7221536 Z M227.624323,63.981663 L225.792122,65.4347882 C224.212638,66.635196 223.328127,66.6983753 222.569975,64.7398153 L210.629076,38.9626378 C209.934103,37.0040777 209.112772,35.108697 206.775135,35.108697 L192.433422,35.108697 C190.727579,35.108697 189.906247,36.4354635 190.474862,38.0149474 L200.773097,61.5176681 C201.46807,63.4762281 202.036684,65.1820708 202.099863,66.8879134 C202.163042,68.593756 201.720787,70.1732399 200.646738,71.7527238 L194.455161,80.3451163 C193.128394,81.8614209 192.55978,83.5672635 192.370242,85.3362855 C192.180704,87.1053075 192.55978,89.0006882 193.128394,91.0224276 L196.855977,104.732348 C197.803667,107.954495 197.171873,109.344441 193.633829,109.344441 C191.422552,109.344441 190.727579,110.987104 190.727579,113.008844 L190.538041,125.076101 C190.538041,126.908302 191.422552,128.235069 193.381112,128.235069 L212.524457,128.235069 C214.356658,128.171889 215.557066,127.034661 215.557066,124.570666 L215.557066,116.546888 C215.557066,112.756126 214.672555,108.902185 213.345789,105.111424 L209.175951,93.2968844 C208.480978,91.3383244 209.428668,89.506123 211.639946,87.6739217 L225.349866,123.622976 C225.918481,124.886563 226.487095,126.08697 227.371606,126.908302 C228.256117,127.729634 229.519704,128.235069 231.730981,128.235069 L239.881118,128.235069 C244.935467,128.235069 245.504081,125.328818 243.292804,119.705855 L231.604623,89.8220198 C230.277856,86.5998726 230.593753,84.1358777 233.057748,81.6718828 L243.6087,70.1732399 C245.061826,68.4673973 245.883157,67.2038102 245.883157,64.7398153 L245.883157,46.3546225 C245.883157,43.5115515 244.745929,40.6684804 242.913727,38.5835617 C241.081526,36.4986429 238.491172,35.108697 235.648101,35.108697 L225.413046,35.108697 C222.443616,35.108697 221.811822,36.4354635 221.811822,39.1521759 L221.811822,48.0604651 C221.811822,49.2608729 221.811822,50.334922 222.127719,51.219433 C222.443616,52.103944 223.138589,52.7357375 224.465355,52.7357375 L226.234377,52.7357375 C226.99253,52.7357375 227.624323,53.3675311 227.624323,54.1256834 L227.624323,63.981663 Z M168.046197,124.507487 C168.046197,126.971481 170.004757,128.235069 172.026497,128.235069 L180.934786,128.235069 C183.398781,128.235069 184.851906,127.224199 184.851906,124.381128 L184.851906,39.2785346 C184.851906,35.80367 184.220113,35.108697 180.997965,35.108697 L149.787363,35.108697 C147.323368,35.108697 146.059781,37.0672571 146.059781,39.0889965 L146.059781,48.8186174 C146.059781,51.2826123 147.070651,52.7357375 149.913722,52.7357375 L163.686822,52.7357375 C166.972148,52.7357375 168.046197,54.3152214 168.046197,57.790086 L168.046197,124.507487 Z M123.820656,69.5414464 C123.820656,72.2581587 123.062504,72.7635935 121.230303,72.7635935 L119.840357,72.7635935 C118.892666,69.1623702 118.008155,65.6243263 117.250003,62.212641 C116.55503,59.36957 115.986416,56.1474228 115.544161,53.177993 C115.038726,50.2085633 114.722829,47.4918509 114.722829,45.4069322 L114.722829,39.3417139 C114.533291,36.3722842 113.838318,35.1718764 110.868888,35.108697 L96.9694298,35.108697 C94.7581523,35.108697 94.0631794,36.7513603 94,38.4572029 L94,46.9232367 C94,50.1453839 95.0740491,51.2826123 96.5903536,51.2826123 C98.1066582,51.2826123 99.1175279,51.4721504 99.8125008,53.3043517 L108.025817,90.0747372 L108.025817,136.701102 C108.025817,139.670532 108.973507,140.681402 111.184785,140.681402 L120.851227,140.681402 C123.125683,140.681402 124.515629,139.670532 124.515629,136.701102 L124.515629,93.5496018 C124.515629,91.0224276 124.705167,89.506123 125.526499,88.6847914 C126.347831,87.8634598 127.927314,87.6107423 130.707206,87.6107423 C135.761555,87.6107423 138.794164,84.5781332 139.741854,79.9660402 L139.741854,39.9735075 C139.741854,38.2044855 139.678675,36.9408984 139.17324,36.1827461 C138.667805,35.4245938 137.783294,35.108697 136.014272,35.108697 L123.44158,35.108697 C119.966716,35.108697 119.145384,36.1827461 119.145384,39.6576107 L119.145384,48.4395413 C119.145384,51.0298949 120.282612,51.7880472 121.48302,52.293482 C122.683428,52.8620962 123.820656,53.177993 123.820656,54.8838356 L123.820656,69.5414464 Z M345.166338,211.277979 C345.166338,206.596389 348.887602,202.755084 353.569192,202.755084 C358.250782,202.755084 362.092087,206.596389 362.092087,211.277979 L362.092087,335.880306 C362.092087,342.60259 364.13278,346.203813 370.735023,346.203813 L387.900854,346.203813 C392.702486,346.203813 395.583464,342.962712 395.583464,335.880306 L395.583464,181.027703 C395.583464,173.825257 389.941548,169.263707 382.859142,169.263707 L324.279242,169.143666 C318.877407,169.143666 315.756347,169.863911 314.195817,171.784563 C312.635287,173.705216 312.275165,176.826276 312.275165,181.267785 L312.275165,335.640225 C312.275165,342.242467 313.715654,346.203813 319.837734,346.203813 L336.403361,346.203813 C343.605808,346.203813 345.166338,342.962712 345.166338,335.640225 L345.166338,211.277979 Z M261.257844,169.263707 C255.97605,169.263707 254.415519,172.984971 254.415519,177.666561 L254.415519,196.392923 C254.415519,199.634024 255.495886,202.15488 258.376865,203.595369 C261.377884,205.155899 261.858048,207.676756 260.537599,210.917857 L256.336172,221.601486 C254.53556,226.283076 254.295479,230.364463 255.856009,235.526216 L262.698333,256.773434 C264.498945,262.41535 265.219189,268.057267 264.138822,273.819224 L258.857028,305.990152 L254.895683,339.001366 C254.295479,343.802997 255.735968,345.843691 260.417558,346.203813 L280.104246,346.203813 C283.82551,346.083772 285.746162,342.482549 286.346366,339.001366 L295.469465,284.502853 C296.909955,276.34008 297.75024,268.657471 297.390118,260.974861 C297.029995,253.412292 295.469465,245.969764 291.988283,238.647276 C287.546774,229.044014 287.546774,219.920915 293.308731,211.277979 C296.309751,206.83647 298.110362,202.515002 299.070689,198.073494 C300.031015,193.752026 300.271096,189.070435 300.271096,183.6686 C300.271096,179.827295 299.070689,176.106031 296.789914,173.465134 C294.509139,170.824237 291.388079,169.263707 287.546774,169.263707 L261.257844,169.263707 Z M242.41145,184.148763 C242.41145,173.585175 237.969941,169.263707 227.406352,169.263707 L212.161174,169.263707 C208.679991,169.263707 206.159135,171.064319 206.159135,174.905624 L206.159135,199.153861 C206.159135,201.434635 207.359543,202.034839 208.43991,202.995165 C209.520277,203.955492 210.720684,205.395981 210.720684,209.237286 L210.720684,243.929071 C210.720684,249.090824 212.161174,252.091843 218.283253,252.091843 L233.648473,252.091843 C239.530471,252.091843 242.41145,251.131517 242.41145,243.929071 L242.41145,184.148763 Z M194.155074,179.587214 C194.155074,173.825257 190.913973,169.263707 183.711526,169.263707 L113.007508,169.263707 C108.205877,169.263707 104.964776,173.585175 104.964776,177.786602 L104.964776,197.833412 C104.964776,200.834431 106.645347,202.755084 110.006489,203.595369 C113.36763,204.435655 115.288283,205.27594 116.008528,206.596389 C116.728772,207.916837 116.128568,209.717449 114.568038,212.598428 C110.366611,220.64116 110.966815,228.803933 111.8071,237.086746 L118.769465,304.309582 C119.249629,309.471335 118.289302,310.551702 113.127549,310.551702 C109.406285,310.551702 107.845755,313.792803 107.845755,317.634108 L107.965795,340.201774 C108.085836,345.123446 109.646366,346.203813 114.80812,346.203813 L145.298477,346.203813 C149.739986,346.203813 151.300516,344.643283 151.300516,340.201774 C151.300516,338.161081 151.300516,335.760265 151.420557,332.999327 L151.420557,324.596473 C151.300516,318.714475 151.060435,312.352314 150.580271,306.950479 C149.259823,294.226156 147.699293,281.381793 146.018722,268.53743 C144.338151,255.693067 142.65758,242.968744 141.09705,230.124381 C140.616887,226.163035 141.217091,221.841568 142.65758,217.880222 C143.978029,213.918876 145.77864,210.077571 147.699293,206.71643 C149.259823,204.195573 152.620965,203.115206 155.621984,203.835451 C158.502963,204.555696 161.023819,206.956511 161.023819,210.917857 L161.023819,339.841652 C161.023819,343.562916 163.064512,345.843691 167.38598,346.203813 L187.43279,346.203813 C192.11438,346.203813 194.155074,343.442875 194.155074,339.001366 L194.155074,179.587214 Z M366.713652,475.089679 C370.251695,475.089679 373.537022,473.636554 375.874658,471.298918 C378.212294,468.961282 379.66542,465.675955 379.66542,462.137911 L379.66542,385.374993 C379.66542,382.847819 378.780909,381.963308 376.064196,381.963308 L348.454817,381.963308 C345.674926,381.963308 344.853594,382.910998 344.853594,385.374993 L344.853594,395.736407 C344.853594,398.45312 346.117181,399.590348 348.833894,399.590348 L357.110389,399.590348 C359.068949,399.590348 360.206178,399.779886 360.96433,400.474859 C361.659303,401.233011 361.848841,402.37024 361.848841,404.391979 L361.848841,452.661008 C361.848841,456.704486 360.395716,458.031253 356.541775,458.031253 L347.886203,458.031253 C345.106312,458.031253 344.095442,458.978943 344.095442,461.442938 L344.095442,471.677994 C344.095442,474.394706 345.106312,475.0265 347.823024,475.089679 L366.713652,475.089679 Z M337.777513,388.407602 C337.777513,385.564531 337.651154,383.858688 336.703464,382.974177 C335.755774,382.089666 334.17629,381.963308 331.143681,381.963308 L320.46637,381.963308 C318.950065,381.963308 317.876016,381.900128 317.181043,381.394693 C316.48607,380.952438 316.233353,380.004748 316.233353,378.235726 L316.233353,376.087627 C316.233353,372.86548 315.601559,371.854611 312.632129,371.854611 L304.924248,371.854611 C302.144356,371.854611 301.449383,372.92866 301.449383,375.898089 L301.449383,394.346461 C301.449383,396.305022 301.702101,397.631788 302.523432,398.38994 C303.281585,399.211272 304.608351,399.590348 306.819629,399.590348 L317.939195,399.590348 C320.782266,399.590348 321.919495,400.601218 321.919495,403.570648 L321.919495,449.375681 C321.919495,451.018344 321.919495,452.281931 321.856315,453.166442 C321.729957,454.998644 320.971804,455.883155 319.202782,456.32541 L315.4752,457.083563 C313.51664,457.399459 312.505771,458.34715 312.442591,460.30571 L312.505771,472.05707 C312.505771,474.01563 313.769358,475.152858 315.727918,475.089679 L324.004413,475.089679 C327.795175,475.089679 331.20686,473.573375 333.734034,471.10938 C336.198029,468.645385 337.714334,465.2337 337.714334,461.442938 L337.777513,388.407602 Z M265.310804,471.867532 C265.310804,473.826092 264.173575,475.089679 262.404553,475.089679 L250.653193,475.089679 C248.694633,475.089679 248.126019,473.826092 248.126019,471.867532 L248.126019,403.886544 C247.936481,400.538038 247.115149,399.590348 243.640284,399.590348 L228.224521,399.590348 C226.518679,399.590348 225.318271,398.074044 225.318271,396.49456 L225.318271,385.122275 C225.318271,383.353253 226.645038,382.026487 228.35088,381.963308 L259.940558,381.963308 C262.215015,381.963308 263.541782,382.216025 264.363113,382.974177 C265.121266,383.795509 265.310804,385.122275 265.310804,387.396732 L265.310804,471.867532 Z M225.318271,421.576764 C225.318271,419.555025 226.897755,417.975541 228.919494,417.975541 L237.448707,417.975541 C239.407268,417.975541 241.049931,419.555025 241.049931,421.576764 L241.049931,471.488456 C241.049931,473.510195 239.407268,475.089679 237.448707,475.089679 L228.919494,475.089679 C226.897755,475.089679 225.318271,473.510195 225.318271,471.488456 L225.318271,421.576764 Z M219.000344,385.817248 C219.000344,382.72146 217.989474,381.963308 214.767327,381.963308 L201.499662,381.963308 C198.530233,381.963308 197.582542,382.72146 197.582542,385.69089 L197.582542,395.736407 C197.582542,396.810456 197.708901,397.694967 197.898439,398.263582 C198.277515,399.463989 198.719771,400.032604 199.414744,400.41168 C199.73064,400.601218 200.046537,400.853935 200.299255,401.169832 C200.804689,401.801626 201.246945,402.812495 201.246945,404.834235 L201.246945,454.493209 C201.246945,455.504079 200.172896,456.641307 198.846129,456.641307 C197.393004,456.641307 196.192596,455.756796 196.129417,454.493209 L193.349525,385.754069 C193.286346,383.226895 192.275476,381.963308 189.748302,381.963308 L175.406588,381.963308 C172.942593,381.963308 172.121262,383.163715 172.121262,385.501352 L172.121262,396.305022 C172.121262,399.274451 173.321669,399.969424 174.585256,400.601218 C175.785664,401.233011 176.922893,401.864805 176.922893,404.391979 L179.070991,452.281931 C179.13417,453.35598 179.197349,454.619568 178.818273,455.567258 C178.439197,456.514948 177.681045,457.209921 176.16474,457.209921 C173.827104,457.209921 173.574387,458.473508 173.574387,460.24253 L173.574387,470.288048 C173.574387,472.499326 173.827104,473.636554 174.458898,474.268348 C175.090691,474.900141 176.291099,475.089679 178.312838,475.089679 L209.523441,475.089679 C212.49287,475.089679 214.830507,473.762913 216.47317,471.488456 C218.115833,469.213999 219.000344,466.055031 219.000344,462.327449 L219.000344,385.817248 Z M165.803334,386.575401 L165.803334,471.0462 C165.803334,474.268348 164.982003,475.089679 161.696676,475.089679 L128.527514,475.089679 C126.695313,475.089679 125.558084,474.900141 124.863111,474.205168 C124.168138,473.510195 123.9786,472.436146 123.9786,470.603945 L123.9786,405.592387 C123.9786,404.202441 123.915421,403.128392 123.789062,402.37024 C123.473165,400.917115 122.967731,400.285321 122.462296,400.032604 C121.893682,399.779886 121.388247,399.463989 121.135529,398.705837 C120.945991,398.326761 120.882812,397.694967 120.882812,396.810456 L120.882812,385.501352 C120.882812,382.531922 121.704143,381.963308 124.673573,381.963308 L161.949394,381.963308 C164.918823,381.963308 165.803334,383.542792 165.803334,386.575401 Z M149.882136,456.641306 L149.882136,409.067251 C149.882136,406.350539 147.797218,404.26562 145.080505,404.26562 C142.363793,404.26562 140.342054,406.350539 140.342054,409.067251 L140.342054,456.641306 C140.342054,459.358019 142.363793,461.379758 145.080505,461.379758 C147.797218,461.379758 149.882136,459.358019 149.882136,456.641306 Z" id="כל-הארץ-חזית-כל-העם" fill="#120A33"></path>
            <path d="M363.145919,570.237757 C363.145919,571.29538 362.558351,571.882948 361.500729,571.882948 C361.030674,571.882948 360.56062,571.765434 360.208079,571.29538 L349.631855,543.327142 L349.631855,510.30582 C349.279314,505.017707 347.751637,502.784949 343.051093,502.784949 L316.140478,502.784949 C311.557447,502.784949 310.147284,504.430139 310.147284,509.01317 L310.147284,529.343023 C310.147284,532.045836 310.734852,535.571244 313.672692,535.571244 L319.665886,535.571244 C320.958536,535.571244 321.546104,536.158812 321.546104,537.451462 L321.546104,557.663802 L361.030674,634.870239 C362.558351,639.218242 361.85327,642.038569 357.152725,642.038569 L320.018427,642.038569 C316.257992,642.038569 314.025233,642.273596 312.732583,643.566246 C311.439934,644.858895 311.087393,646.856626 311.087393,650.617062 L311.087393,669.066697 C311.087393,675.059891 312.850097,676 318.49075,676 L390.87913,676 C396.402269,676 398.164973,674.70735 398.164973,669.066697 L398.282487,651.674684 C398.282487,645.68149 397.107351,641.09846 394.404538,636.045375 L378.540201,601.96643 C373.957171,593.975505 374.89728,589.039934 383.828313,589.039934 L391.23167,589.039934 C395.46216,589.039934 397.694919,585.867066 397.694919,582.224145 L397.694919,510.775874 C397.694919,505.252735 395.814701,502.784949 390.526589,502.784949 L363.615974,502.784949 C358.562889,502.784949 356.800185,505.017707 356.800185,510.30582 L356.800185,529.57805 C356.800185,531.575782 357.152725,532.985945 357.857807,533.80854 C359.150457,535.336217 360.795647,535.571244 362.20581,535.923785 C362.793378,536.158812 363.145919,536.74638 363.145919,537.568975 L363.145919,570.237757 Z" id="Path" fill="#EC2600"></path>
            <path d="M293.577882,640.745919 C288.524797,640.745919 287.937229,638.278133 287.937229,631.814885 L287.937229,510.540847 C287.937229,504.077599 286.762093,502.784949 280.768899,502.784949 L222.717179,502.784949 C218.134148,502.784949 215.783876,506.427871 215.783876,510.188306 L215.783876,528.285401 C215.783876,532.868431 217.664094,535.571244 222.952206,535.571244 L248.217631,535.571244 C254.328338,535.571244 256.326069,538.509084 256.326069,544.972332 L256.326069,631.814885 C256.326069,638.748188 254.210825,640.745919 247.277522,640.745919 L222.482152,640.745919 C218.83923,640.745919 215.90139,642.978678 215.90139,647.091654 L215.90139,652.497279 C215.783876,654.495011 215.783876,656.375228 215.783876,658.37296 L215.783876,664.366153 C215.783876,666.363885 215.783876,668.126589 215.90139,669.771779 C216.018904,674.119782 217.54658,676 221.894584,676 L291.932691,676 C296.515722,676 298.395939,674.119782 298.395939,669.536752 L298.395939,644.858895 C298.395939,642.391109 297.925885,640.745919 294.282963,640.745919 L293.577882,640.745919 Z" id="Path" fill="#EC2600"></path>
            <path d="M170.071103,556.488666 L166.663209,559.191478 C163.725369,561.424237 162.080178,561.541751 160.670015,557.898829 L138.459944,509.953279 C137.167294,506.310357 135.639618,502.784949 131.291614,502.784949 L104.616026,502.784949 C101.443159,502.784949 99.9154822,505.252735 100.973105,508.190575 L120.127822,551.905635 C121.420472,555.548557 122.478094,558.721424 122.595608,561.894291 C122.713121,565.067159 121.890526,568.004999 119.892795,570.942839 L108.376462,586.924689 C105.908676,589.745015 104.851054,592.917883 104.498513,596.208263 C104.145972,599.498644 104.851054,603.024052 105.908676,606.784488 L112.841979,632.28494 C114.604683,638.278133 113.429547,640.863433 106.848785,640.863433 C102.735809,640.863433 101.443159,643.918786 101.443159,647.679222 L101.090618,670.12432 C101.090618,673.532214 102.735809,676 106.37873,676 L141.985352,676 C145.393247,675.882486 147.626005,673.767242 147.626005,669.184211 L147.626005,654.259983 C147.626005,647.209167 145.980815,640.040837 143.513029,632.990021 L135.757131,611.014977 C134.464482,607.372056 136.227186,603.964161 140.340162,600.556267 L165.840614,667.421507 C166.898236,669.771779 167.955858,672.004537 169.601049,673.532214 C171.246239,675.059891 173.596511,676 177.709488,676 L192.868742,676 C202.269831,676 203.327453,670.594374 199.214477,660.135664 L177.47446,604.551729 C175.006675,598.558536 175.594243,593.975505 180.177273,589.392474 L199.802045,568.004999 C202.504858,564.832131 204.032535,562.481859 204.032535,557.898829 L204.032535,523.70237 C204.032535,518.414258 201.91729,513.126146 198.509395,509.248197 C195.101501,505.370248 190.283443,502.784949 184.995331,502.784949 L165.958127,502.784949 C160.434988,502.784949 159.259852,505.252735 159.259852,510.30582 L159.259852,526.875238 C159.259852,529.107996 159.259852,531.105727 159.84742,532.750918 C160.434988,534.396108 161.727638,535.571244 164.195423,535.571244 L167.485804,535.571244 C168.895967,535.571244 170.071103,536.74638 170.071103,538.156543 L170.071103,556.488666 Z" id="Path" fill="#EC2600"></path>
            <rect id="Rectangle-Copy-2" fill="#120A33" x="460" y="35" width="20" height="641"></rect>
            <rect id="Rectangle-Copy-3" fill="#120A33" x="20" y="35" width="20" height="641"></rect>
        </g>
    </g>
</svg>