<?xml version="1.0" encoding="UTF-8"?>
<svg width="500px" height="700px" viewBox="0 0 500 700" version="1.1" xmlns="http://www.w3.org/2000/svg" xmlns:xlink="http://www.w3.org/1999/xlink">
    <!-- Generator: Sketch 45.2 (43514) - http://www.bohemiancoding.com/sketch -->
    <title>Block-bergman/Block-bergman-dislay</title>
    <desc>Created with Sketch.</desc>
    <defs></defs>
    <g id="Page-1" stroke="none" stroke-width="1" fill="none" fill-rule="evenodd">
        <g id="Block-bergman/Block-bergman-dislay">
            <g id="Group" transform="translate(104.000000, 114.000000)">
                <path d="M259.693359,0.306640625 L292.277344,68.8115234 L292.277344,80.2617188 L267.217773,80.2617188 L233.259766,6.71875 L233.259766,0.306640625 L259.693359,0.306640625 Z M285.276367,47.546875 L263.161133,0.4375 L292.669922,0.4375 L292.669922,37.8632812 L285.276367,47.546875 Z M241.831055,33.1523438 L263.946289,80.2617188 L234.4375,80.2617188 L234.4375,40.8076172 L241.831055,33.1523438 Z M200.741211,80 L200.741211,0.241210938 L211.079102,0.241210938 C213.783542,0.241210938 216.258941,0.655594814 218.505371,1.484375 C220.751802,2.31315519 222.681958,3.51268746 224.295898,5.08300781 C225.909839,6.65332816 227.15299,8.48534109 228.025391,10.5791016 C228.897791,12.672862 229.333984,14.9192588 229.333984,17.3183594 L229.333984,80 L200.741211,80 Z M170.120117,80 L170.120117,37.7978516 L165.605469,37.7978516 L165.605469,80 L133.086914,80 L133.086914,42.3779297 L138.517578,42.3779297 L138.517578,0.110351562 L178.560547,0.110351562 C181.264987,0.110351562 183.740386,0.524735439 185.986816,1.35351562 C188.233247,2.18229581 190.163403,3.38182809 191.777344,4.95214844 C193.391284,6.52246879 194.634436,8.35448172 195.506836,10.4482422 C196.379236,12.5420027 196.81543,14.7883995 196.81543,17.1875 L196.81543,80 L170.120117,80 Z M100.50293,37.7978516 L100.50293,0.110351562 L110.90625,0.110351562 C113.610691,0.110351562 116.086089,0.524735439 118.33252,1.35351562 C120.57895,2.18229581 122.509107,3.38182809 124.123047,4.95214844 C125.736987,6.52246879 126.980139,8.35448172 127.852539,10.4482422 C128.724939,12.5420027 129.161133,14.7883995 129.161133,17.1875 L129.161133,37.7978516 L100.50293,37.7978516 Z M67.984375,80 L67.984375,0.241210938 L78.3222656,0.241210938 C81.0267062,0.241210938 83.5021047,0.655594814 85.7485352,1.484375 C87.9949657,2.31315519 89.9251221,3.51268746 91.5390625,5.08300781 C93.1530029,6.65332816 94.3961545,8.48534109 95.2685547,10.5791016 C96.1409549,12.672862 96.5771484,14.9192588 96.5771484,17.3183594 L96.5771484,80 L67.984375,80 Z M37.3632813,80 L37.3632813,37.7978516 L32.8486328,37.7978516 L32.8486328,80 L0.330078125,80 L0.330078125,42.3779297 L5.76074219,42.3779297 L5.76074219,0.110351562 L45.8037109,0.110351562 C48.5081515,0.110351562 50.98355,0.524735439 53.2299805,1.35351562 C55.476411,2.18229581 57.4065675,3.38182809 59.0205078,4.95214844 C60.6344482,6.52246879 61.8775998,8.35448172 62.75,10.4482422 C63.6224002,12.5420027 64.0585938,14.7883995 64.0585938,17.1875 L64.0585938,80 L37.3632813,80 Z M210.064941,125.110352 L210.064941,178.893555 C210.064941,182.601256 209.399746,186.058089 208.069336,189.26416 C206.738926,192.470231 204.830579,195.250965 202.344238,197.606445 C199.814278,199.961926 196.837257,201.783034 193.413086,203.069824 C189.988915,204.356615 186.226746,205 182.126465,205 L146.663574,205 L146.663574,167.37793 L151.83252,167.37793 L151.83252,125.110352 L178.724121,125.110352 L178.724121,167.37793 L183.23877,167.37793 L183.23877,125.110352 L210.064941,125.110352 Z M112.705566,125.044922 L130.175293,167.37793 L142.737793,167.37793 L142.737793,221.75 L115.977051,221.75 L115.977051,204.476562 L82.9350586,125.044922 L112.705566,125.044922 Z M116.631348,125.044922 L142.737793,125.044922 L142.737793,162.797852 L132.007324,162.797852 L116.631348,125.044922 Z" id="אותיות-עץ-צבי-ברגמן" fill="#120A33"></path>
                <polygon id="Path" fill="#EC2600" points="223.772461 321.428711 223.772461 330 165.34375 330 165.34375 292.3125 181.897461 292.3125 164.558594 250.110352 194.329102 250.110352"></polygon>
                <polygon id="Path" fill="#EC2600" points="224.295898 250.110352 224.295898 284.526367 216.051758 293.359375 198.189453 250.110352"></polygon>
                <path d="M160.632812,330 L101.288086,330 L101.288086,292.3125 L125.235352,292.3125 L125.235352,287.797852 L101.288086,287.797852 L101.288086,250.175781 L135.573242,250.175781 C138.277683,250.175781 140.753081,250.590165 142.999512,251.418945 C145.245942,252.247725 147.176099,253.447258 148.790039,255.017578 C150.403979,256.587898 151.658036,258.419911 152.552246,260.513672 C153.446456,262.607432 153.893555,264.853829 153.893555,267.25293 L153.893555,292.3125 L160.632812,292.3125 L160.632812,330 Z" id="Path" fill="#EC2600"></path>
                <path d="M68.7041016,287.797852 L68.7041016,250.110352 L79.1074219,250.110352 C81.8118625,250.110352 84.2872609,250.524735 86.5336914,251.353516 C88.7801219,252.182296 90.7102784,253.381828 92.3242188,254.952148 C93.9381591,256.522469 95.1813107,258.354482 96.0537109,260.448242 C96.9261111,262.542003 97.3623047,264.788399 97.3623047,267.1875 L97.3623047,287.797852 L68.7041016,287.797852 Z" id="Path" fill="#EC2600"></path>
                <path d="M287.271973,455 L227.927246,455 L227.927246,417.3125 L251.874512,417.3125 L251.874512,412.797852 L227.927246,412.797852 L227.927246,375.175781 L262.212402,375.175781 C264.916843,375.175781 267.392241,375.590165 269.638672,376.418945 C271.885102,377.247725 273.815259,378.447258 275.429199,380.017578 C277.04314,381.587898 278.297196,383.419911 279.191406,385.513672 C280.085616,387.607432 280.532715,389.853829 280.532715,392.25293 L280.532715,417.3125 L287.271973,417.3125 L287.271973,455 Z" id="Path" fill="#EC2600"></path>
                <path d="M195.408691,454.93457 L195.408691,412.797852 L172.377441,412.797852 L172.377441,375.110352 L205.746582,375.110352 C208.451023,375.110352 210.926421,375.524735 213.172852,376.353516 C215.419282,377.182296 217.349439,378.381828 218.963379,379.952148 C220.577319,381.522469 221.820471,383.354482 222.692871,385.448242 C223.565271,387.542003 224.001465,389.788399 224.001465,392.1875 L224.001465,454.93457 L195.408691,454.93457 Z" id="Path" fill="#EC2600"></path>
                <polygon id="Path" fill="#EC2600" points="141.952637 375.175781 168.45166 443.549805 168.45166 455 143.39209 455 112.509277 375.175781"></polygon>
                <polygon id="Path" fill="#EC2600" points="124.679199 417.3125 139.531738 455 113.163574 455 113.163574 417.3125"></polygon>
                <path d="M107.274902,385.153809 C108.147303,387.225759 108.583496,389.439441 108.583496,391.794922 L108.583496,455 L81.4301758,455 L81.4301758,417.37793 L102.694824,417.37793 L102.694824,412.797852 L75.6069336,412.797852 L75.6069336,455 L42.6303711,455 L42.6303711,375.110352 L57.2866211,375.110352 C59.9910617,375.110352 62.477365,375.524735 64.7456055,376.353516 C67.013846,377.182296 68.9549073,378.338209 70.5688477,379.821289 C72.182788,381.304369 73.4259396,383.081858 74.2983398,385.153809 C75.17074,387.225759 75.6069336,389.439441 75.6069336,391.794922 L75.6069336,375.110352 L90.2631836,375.110352 C92.9676242,375.110352 95.4539275,375.524735 97.722168,376.353516 C99.9904085,377.182296 101.93147,378.338209 103.54541,379.821289 C105.159351,381.304369 106.402502,383.081858 107.274902,385.153809 Z" id="Path" fill="#EC2600"></path>
                <path d="M5.72802734,471.75 L5.72802734,375.110352 L20.449707,375.110352 C23.1105276,375.110352 25.5750212,375.524735 27.8432617,376.353516 C30.1115022,377.182296 32.0525635,378.338209 33.6665039,379.821289 C35.2804443,381.304369 36.5235959,383.081858 37.3959961,385.153809 C38.2683963,387.225759 38.7045898,389.439441 38.7045898,391.794922 L38.7045898,471.75 L5.72802734,471.75 Z" id="Path" fill="#EC2600"></path>
            </g>
            <rect id="Rectangle-Copy" fill="#120A33" x="20" y="670" width="460" height="5"></rect>
            <rect id="Rectangle-Copy-4" fill="#120A33" x="20" y="20" width="460" height="5"></rect>
            <rect id="Rectangle-Copy-2" fill="#120A33" x="475" y="40" width="5" height="615"></rect>
            <rect id="Rectangle-Copy-3" fill="#120A33" x="20" y="40" width="5" height="615"></rect>
        </g>
    </g>
</svg>