<?xml version="1.0" encoding="UTF-8"?>
<svg width="500px" height="700px" viewBox="0 0 500 700" version="1.1" xmlns="http://www.w3.org/2000/svg" xmlns:xlink="http://www.w3.org/1999/xlink">
    <!-- Generator: Sketch 46 (44423) - http://www.bohemiancoding.com/sketch -->
    <title>Hiroshima/Hiroshima-dislay</title>
    <desc>Created with Sketch.</desc>
    <defs></defs>
    <g id="Page-1" stroke="none" stroke-width="1" fill="none" fill-rule="evenodd">
        <g id="Hiroshima/Hiroshima-dislay">
            <path d="M20,20 L480,20 L480,680 L20,680 L20,20 Z M395.897371,259.604946 L395.897371,238 L437.143177,238 C444.999521,238 450.237084,243.674026 450.237084,250.875675 L450.237084,381.814743 L424.485734,381.814743 L424.485734,259.604946 L395.897371,259.604946 Z M395.346167,382.338949 L395.346167,262.747934 L421.315749,262.747934 L421.315749,382.338949 L395.346167,382.338949 Z M392.623894,293.430872 L367.090776,293.430872 L367.090776,238 L392.623894,238 L392.623894,293.430872 Z M322.353261,238 L350.505161,238 C358.361505,238 363.599067,243.674026 363.599067,250.875675 L363.599067,381.814743 L337.847717,381.814743 L337.847717,259.604946 L335.228936,259.604946 L335.228936,293.430872 L309.259354,293.430872 L309.259354,250.875675 C309.259354,243.674026 314.715149,238 322.353261,238 Z M305.985878,381.814743 L280.452759,381.814743 L280.452759,238 L305.985878,238 L305.985878,381.814743 Z M264.303608,381.814743 L194.469438,381.814743 L194.469438,238 L220.002556,238 L220.002556,360.209797 L223.057801,360.209797 L223.057801,238 L248.59092,238 L248.59092,360.209797 L251.646164,360.209797 L251.646164,238 L277.179283,238 L277.179283,368.720836 C277.179283,376.358948 271.287025,381.814743 264.303608,381.814743 Z M191.195961,293.430872 L165.662843,293.430872 L165.662843,238 L191.195961,238 L191.195961,293.430872 Z M107.831422,279.68227 C107.831422,272.698853 113.287216,267.024827 120.925328,267.024827 L107.831422,267.024827 L107.831422,238 L149.077228,238 C156.497109,238 162.171135,243.455794 162.171135,251.093907 L162.171135,381.814743 L130.96399,381.814743 L130.96399,360.209797 L136.419785,360.209797 L136.419785,267.024827 L133.801003,267.024827 L133.801003,358.027479 L128.345209,358.027479 L128.345209,381.814743 L107.831422,381.814743 L107.831422,279.68227 Z M50,259.604946 L50,238 L91.2458064,238 C99.1021504,238 104.339713,243.674026 104.339713,250.875675 L104.339713,381.814743 L78.5883631,381.814743 L78.5883631,259.604946 L50,259.604946 Z M50,381.814743 L50,262.223728 L75.9695818,262.223728 L75.9695818,381.814743 L50,381.814743 Z" id="Rectangle-2" fill="#EC2600"></path>
            <path d="M444.728469,639.866 C444.728469,640.204 444.390469,640.49 444.104469,640.49 L442.856469,640.49 C442.466469,640.49 442.154469,640.828 442.154469,641.218 L442.154469,643.298 C442.154469,643.688 442.466469,644 442.856469,644 L447.510469,644 C447.900469,644 448.238469,643.688 448.238469,643.298 L448.238469,625.956 C448.238469,625.566 447.900469,625.254 447.510469,625.254 L443.220469,625.254 C442.830469,625.254 442.518469,625.566 442.518469,625.956 L442.518469,628.036 C442.518469,628.426 442.830469,628.764 443.220469,628.764 L444.104469,628.764 C444.416469,628.764 444.728469,629.128 444.728469,629.466 L444.728469,639.866 Z M437.656469,644 C438.046469,644 438.358469,643.688 438.358469,643.298 L438.358469,629.388 C438.358469,629.05 438.722469,628.764 439.086469,628.764 C439.502469,628.764 439.814469,628.426 439.814469,628.036 L439.814469,625.956 C439.814469,625.566 439.502469,625.254 439.112469,625.254 L430.168469,625.254 C429.778469,625.254 429.466469,625.566 429.466469,625.956 L429.466469,628.036 C429.466469,628.426 429.778469,628.764 430.168469,628.764 L434.224469,628.764 C434.536469,628.764 434.848469,629.076 434.848469,629.388 L434.848469,643.298 C434.848469,643.688 435.186469,644 435.576469,644 L437.656469,644 Z M427.672469,644 C428.062469,644 428.400469,643.688 428.400469,643.298 L428.400469,641.218 C428.400469,640.828 428.062469,640.49 427.672469,640.49 L427.256469,640.49 C426.918469,640.49 426.632469,640.204 426.632469,639.788 L426.632469,625.956 C426.632469,625.566 426.320469,625.254 425.930469,625.254 L417.662469,625.254 C417.272469,625.254 416.960469,625.566 416.960469,625.956 L416.960469,628.036 C416.960469,628.426 417.272469,628.764 417.662469,628.764 L422.498469,628.764 C422.810469,628.764 423.122469,629.076 423.122469,629.466 L423.122469,639.788 C423.122469,640.126 422.836469,640.49 422.498469,640.49 L417.428469,640.49 C417.038469,640.49 416.726469,640.828 416.726469,641.218 L416.726469,643.298 C416.726469,643.688 417.038469,644 417.428469,644 L427.672469,644 Z M406.742469,644 C407.132469,644 407.470469,643.688 407.470469,643.298 L407.470469,641.218 C407.470469,640.828 407.132469,640.49 406.742469,640.49 L406.326469,640.49 C405.988469,640.49 405.702469,640.204 405.702469,639.788 L405.702469,625.956 C405.702469,625.566 405.390469,625.254 405.000469,625.254 L396.732469,625.254 C396.342469,625.254 396.030469,625.566 396.030469,625.956 L396.030469,628.036 C396.030469,628.426 396.342469,628.764 396.732469,628.764 L401.568469,628.764 C401.880469,628.764 402.192469,629.076 402.192469,629.466 L402.192469,639.788 C402.192469,640.126 401.906469,640.49 401.568469,640.49 L396.498469,640.49 C396.108469,640.49 395.796469,640.828 395.796469,641.218 L395.796469,643.298 C395.796469,643.688 396.108469,644 396.498469,644 L406.742469,644 Z M389.140469,628.764 C389.530469,628.764 389.842469,629.076 389.842469,629.466 L389.842469,643.298 C389.842469,643.688 390.180469,644 390.570469,644 L392.650469,644 C393.040469,644 393.352469,643.688 393.352469,643.298 L393.352469,625.956 C393.352469,625.566 393.040469,625.254 392.650469,625.254 L384.824469,625.254 C384.434469,625.254 384.096469,625.566 384.096469,625.956 L384.096469,628.036 C384.096469,628.426 384.434469,628.764 384.824469,628.764 L389.140469,628.764 Z M378.376469,644 C379.026469,644 379.312469,643.74 379.650469,643.116 L381.678469,639.086 C382.016469,638.488 382.198469,637.916 382.198469,637.266 L382.198469,625.956 C382.198469,625.566 381.886469,625.254 381.496469,625.254 L373.072469,625.254 C372.682469,625.254 372.370469,625.566 372.370469,625.956 L372.370469,628.036 C372.370469,628.426 372.682469,628.764 373.072469,628.764 L377.986469,628.764 C378.350469,628.764 378.688469,629.05 378.688469,629.466 L378.688469,636.278 C378.688469,637.11 378.506469,637.604 378.272469,638.046 L376.088469,642.31 C375.958469,642.57 375.672469,642.466 375.672469,642.284 L375.672469,632.144 C375.672469,631.754 375.360469,631.416 374.970469,631.416 L372.890469,631.416 C372.500469,631.416 372.162469,631.754 372.162469,632.144 L372.162469,646.002 C372.162469,646.392 372.500469,646.704 372.890469,646.704 L374.970469,646.704 C375.360469,646.704 375.672469,646.392 375.672469,646.002 L375.672469,644.728 C375.672469,644.338 376.010469,644 376.400469,644 L378.376469,644 Z M365.558469,645.976 C365.558469,646.366 365.896469,646.704 366.286469,646.704 L368.366469,646.704 C368.756469,646.704 369.068469,646.366 369.068469,645.976 L369.068469,625.956 C369.068469,625.566 368.756469,625.254 368.366469,625.254 L366.286469,625.254 C365.896469,625.254 365.558469,625.566 365.558469,625.956 L365.558469,645.976 Z" id="נדב-ברקן" fill="#FFFFFF"></path>
            <path d="M157.328,639.84 C157.328,640.204 157.016,640.49 156.678,640.49 C156.288,640.49 155.95,640.828 155.95,641.218 L155.95,643.298 C155.95,643.688 156.288,644 156.678,644 L160.11,644 C160.5,644 160.838,643.688 160.838,643.298 L160.838,629.466 C160.838,629.128 161.176,628.764 161.54,628.764 L163.594,628.764 C163.906,628.764 164.218,629.128 164.218,629.466 L164.218,643.298 C164.218,643.688 164.53,644 164.92,644 L167,644 C167.39,644 167.728,643.688 167.728,643.298 L167.728,625.956 C167.728,625.566 167.39,625.254 167,625.254 L158.03,625.254 C157.64,625.254 157.328,625.566 157.328,625.956 L157.328,639.84 Z M149.268,632.716 L149.528,631.104 C149.606,630.766 150.074,630.766 150.074,631.104 L150.074,639.788 C150.074,640.178 149.762,640.49 149.372,640.49 L148.722,640.49 C148.332,640.49 147.994,640.828 147.994,641.218 L147.994,643.298 C147.994,643.688 148.332,644 148.722,644 L152.856,644 C153.246,644 153.558,643.688 153.558,643.298 L153.558,625.956 C153.558,625.566 153.246,625.254 152.856,625.254 L148.696,625.254 C148.124,625.254 147.708,625.618 147.526,626.268 L146.668,629.154 C146.538,629.57 146.278,629.44 146.278,629.258 L146.278,625.956 C146.278,625.566 145.966,625.254 145.576,625.254 L143.678,625.254 C143.288,625.254 142.976,625.566 142.976,625.956 L142.976,631.416 C142.976,631.806 143.288,632.144 143.678,632.144 L145.186,632.144 C145.576,632.144 145.732,632.326 145.602,632.82 L142.768,642.44 C142.586,643.116 142.612,644 143.444,644 L145.108,644 C145.654,644 146.044,643.688 146.252,643.038 L149.268,632.716 Z M136.866,633.574 C136.866,633.964 137.204,634.276 137.594,634.276 L139.674,634.276 C140.064,634.276 140.376,633.964 140.376,633.574 L140.376,625.956 C140.376,625.566 140.064,625.254 139.674,625.254 L137.594,625.254 C137.204,625.254 136.866,625.566 136.866,625.956 L136.866,633.574 Z M129.664,628.764 C130.054,628.764 130.366,629.076 130.366,629.466 L130.366,643.298 C130.366,643.688 130.704,644 131.094,644 L133.174,644 C133.564,644 133.876,643.688 133.876,643.298 L133.876,625.956 C133.876,625.566 133.564,625.254 133.174,625.254 L125.348,625.254 C124.958,625.254 124.62,625.566 124.62,625.956 L124.62,628.036 C124.62,628.426 124.958,628.764 125.348,628.764 L129.664,628.764 Z M104.808,625.254 C104.418,625.254 104.08,625.566 104.08,625.956 L104.08,628.036 C104.08,628.426 104.262,628.764 104.652,628.764 C104.99,628.764 105.198,629.076 105.198,629.44 L105.198,632.664 C105.198,633.054 105.51,633.366 105.9,633.366 L107.798,633.366 C108.188,633.366 108.5,633.054 108.5,632.664 L108.5,629.466 C108.5,629.076 108.838,628.764 109.228,628.764 L110.164,628.764 C110.502,628.764 110.788,629.128 110.788,629.466 L110.788,639.866 C110.788,640.204 110.45,640.49 110.164,640.49 L104.808,640.49 C104.418,640.49 104.08,640.828 104.08,641.218 L104.08,643.298 C104.08,643.688 104.418,644 104.808,644 L113.57,644 C113.96,644 114.298,643.688 114.298,643.298 L114.298,625.956 C114.298,625.566 113.96,625.254 113.57,625.254 L104.808,625.254 Z M97.84,643.298 C97.84,643.688 98.178,644 98.568,644 L100.648,644 C101.038,644 101.35,643.688 101.35,643.298 L101.35,625.956 C101.35,625.566 101.038,625.254 100.648,625.254 L98.568,625.254 C98.178,625.254 97.84,625.566 97.84,625.956 L97.84,643.298 Z M90.092,632.716 L90.352,631.104 C90.43,630.766 90.898,630.766 90.898,631.104 L90.898,639.788 C90.898,640.178 90.586,640.49 90.196,640.49 L89.546,640.49 C89.156,640.49 88.818,640.828 88.818,641.218 L88.818,643.298 C88.818,643.688 89.156,644 89.546,644 L93.68,644 C94.07,644 94.382,643.688 94.382,643.298 L94.382,625.956 C94.382,625.566 94.07,625.254 93.68,625.254 L89.52,625.254 C88.948,625.254 88.532,625.618 88.35,626.268 L87.492,629.154 C87.362,629.57 87.102,629.44 87.102,629.258 L87.102,625.956 C87.102,625.566 86.79,625.254 86.4,625.254 L84.502,625.254 C84.112,625.254 83.8,625.566 83.8,625.956 L83.8,631.416 C83.8,631.806 84.112,632.144 84.502,632.144 L86.01,632.144 C86.4,632.144 86.556,632.326 86.426,632.82 L83.592,642.44 C83.41,643.116 83.436,644 84.268,644 L85.932,644 C86.478,644 86.868,643.688 87.076,643.038 L90.092,632.716 Z M76.65,628.764 C77.04,628.764 77.352,629.076 77.352,629.466 L77.352,643.298 C77.352,643.688 77.69,644 78.08,644 L80.16,644 C80.55,644 80.862,643.688 80.862,643.298 L80.862,625.956 C80.862,625.566 80.55,625.254 80.16,625.254 L72.334,625.254 C71.944,625.254 71.606,625.566 71.606,625.956 L71.606,628.036 C71.606,628.426 71.944,628.764 72.334,628.764 L76.65,628.764 Z M65.808,639.866 C65.808,640.204 65.47,640.49 65.184,640.49 L63.936,640.49 C63.546,640.49 63.234,640.828 63.234,641.218 L63.234,643.298 C63.234,643.688 63.546,644 63.936,644 L68.59,644 C68.98,644 69.318,643.688 69.318,643.298 L69.318,625.956 C69.318,625.566 68.98,625.254 68.59,625.254 L64.3,625.254 C63.91,625.254 63.598,625.566 63.598,625.956 L63.598,628.036 C63.598,628.426 63.91,628.764 64.3,628.764 L65.184,628.764 C65.496,628.764 65.808,629.128 65.808,629.466 L65.808,639.866 Z M55.954,631.78 C55.772,631.936 55.642,632.014 55.512,632.014 C55.356,632.014 55.252,631.858 55.252,631.598 L55.252,625.956 C55.252,625.566 54.94,625.254 54.55,625.254 L52.47,625.254 C52.08,625.254 51.742,625.566 51.742,625.956 L51.742,645.976 C51.742,646.366 52.08,646.704 52.47,646.704 L54.55,646.704 C54.94,646.704 55.252,646.366 55.252,645.976 L55.252,637.708 C55.252,637.318 55.564,636.85 55.876,636.538 L60.374,632.196 C60.712,631.858 60.972,631.338 60.972,630.948 L60.972,625.956 C60.972,625.566 60.66,625.254 60.27,625.254 L58.19,625.254 C57.8,625.254 57.462,625.566 57.462,625.956 L57.462,629.674 C57.462,630.064 57.306,630.454 56.942,630.818 L55.954,631.78 Z" id="תמיר-פומרנץ" fill="#FFFFFF"></path>
        </g>
    </g>
</svg>