<?xml version="1.0" encoding="UTF-8"?>
<svg width="500px" height="700px" viewBox="0 0 500 700" version="1.1" xmlns="http://www.w3.org/2000/svg" xmlns:xlink="http://www.w3.org/1999/xlink">
    <!-- Generator: Sketch 45.2 (43514) - http://www.bohemiancoding.com/sketch -->
    <title>Hiroshima/Hiroshima-dislay</title>
    <desc>Created with Sketch.</desc>
    <defs></defs>
    <g id="Page-1" stroke="none" stroke-width="1" fill="none" fill-rule="evenodd">
        <g id="Hiroshima/Hiroshima-dislay" fill="#EC2600">
            <path d="M20,20 L480,20 L480,680 L20,680 L20,20 Z M395.897371,259.604946 L395.897371,238 L437.143177,238 C444.999521,238 450.237084,243.674026 450.237084,250.875675 L450.237084,381.814743 L424.485734,381.814743 L424.485734,259.604946 L395.897371,259.604946 Z M395.346167,382.338949 L395.346167,262.747934 L421.315749,262.747934 L421.315749,382.338949 L395.346167,382.338949 Z M392.623894,293.430872 L367.090776,293.430872 L367.090776,238 L392.623894,238 L392.623894,293.430872 Z M322.353261,238 L350.505161,238 C358.361505,238 363.599067,243.674026 363.599067,250.875675 L363.599067,381.814743 L337.847717,381.814743 L337.847717,259.604946 L335.228936,259.604946 L335.228936,293.430872 L309.259354,293.430872 L309.259354,250.875675 C309.259354,243.674026 314.715149,238 322.353261,238 Z M305.985878,381.814743 L280.452759,381.814743 L280.452759,238 L305.985878,238 L305.985878,381.814743 Z M264.303608,381.814743 L194.469438,381.814743 L194.469438,238 L220.002556,238 L220.002556,360.209797 L223.057801,360.209797 L223.057801,238 L248.59092,238 L248.59092,360.209797 L251.646164,360.209797 L251.646164,238 L277.179283,238 L277.179283,368.720836 C277.179283,376.358948 271.287025,381.814743 264.303608,381.814743 Z M191.195961,293.430872 L165.662843,293.430872 L165.662843,238 L191.195961,238 L191.195961,293.430872 Z M107.831422,279.68227 C107.831422,272.698853 113.287216,267.024827 120.925328,267.024827 L107.831422,267.024827 L107.831422,238 L149.077228,238 C156.497109,238 162.171135,243.455794 162.171135,251.093907 L162.171135,381.814743 L130.96399,381.814743 L130.96399,360.209797 L136.419785,360.209797 L136.419785,267.024827 L133.801003,267.024827 L133.801003,358.027479 L128.345209,358.027479 L128.345209,381.814743 L107.831422,381.814743 L107.831422,279.68227 Z M50,259.604946 L50,238 L91.2458064,238 C99.1021504,238 104.339713,243.674026 104.339713,250.875675 L104.339713,381.814743 L78.5883631,381.814743 L78.5883631,259.604946 L50,259.604946 Z M50,381.814743 L50,262.223728 L75.9695818,262.223728 L75.9695818,381.814743 L50,381.814743 Z" id="Rectangle-2"></path>
        </g>
    </g>
</svg>