<?xml version="1.0" encoding="UTF-8"?>
<svg width="60px" height="60px" viewBox="0 0 60 60" version="1.1" xmlns="http://www.w3.org/2000/svg" xmlns:xlink="http://www.w3.org/1999/xlink">
    <!-- Generator: Sketch 45.2 (43514) - http://www.bohemiancoding.com/sketch -->
    <title>tag</title>
    <desc>Created with Sketch.</desc>
    <defs></defs>
    <g id="Page-1" stroke="none" stroke-width="1" fill="none" fill-rule="evenodd">
        <g id="tag">
            <g id="Group" transform="translate(30.000000, 30.000000) rotate(-13.000000) translate(-30.000000, -30.000000) translate(0.000000, -0.000000)">
                <circle id="Oval-Copy" fill="#EC2600" cx="30" cy="30" r="30"></circle>
                <path d="M53.2939995,23 C54.2119995,23 54.8239995,23.748 54.6879995,24.666 L53.0219995,35.24 L54.3819995,35.24 L54.0419995,37.28 L45.2019995,37.28 L45.5419995,35.24 L51.0499995,35.24 L51.3219995,33.438 C51.4579995,32.588 51.2879995,32.044 50.4039995,32.044 L46.0519995,32.044 L47.4799995,23 L53.2939995,23 Z" id="Path" fill="#FFFFFF"></path>
                <path d="M38.0279996,23 L42.7539996,23 C44.7939996,23 45.9159996,24.326 45.5759996,26.366 L43.8419996,37.28 L41.8699996,37.28 L42.4479996,33.778 C42.5839996,32.826 42.2779996,32.044 40.9179996,32.044 L36.5999996,32.044 L38.0279996,23 Z" id="Path" fill="#FFFFFF"></path>
                <polygon id="Path" fill="#FFFFFF" points="38.2319996 34.084 37.7219996 37.28 35.7499996 37.28 36.2599996 34.084"></polygon>
                <path d="M27.1139997,32.044 L28.5419997,23 L33.3019997,23 C35.3419997,23 36.4639997,24.326 36.1239997,26.366 L34.3899997,37.28 L32.4179997,37.28 L33.0299997,33.438 C33.1659997,32.588 32.9959997,32.044 32.1119997,32.044 L27.1139997,32.044 Z" id="Path" fill="#FFFFFF"></path>
                <path d="M25.8559999,23 C26.7739999,23 27.3859999,23.748 27.2499999,24.666 L25.9239999,33.064 L25.8219999,33.744 L25.2439999,37.28 L15.1119999,37.28 L15.4519999,35.24 L24.0199999,35.24 L24.1559999,34.356 L18.3419999,34.356 L18.5119999,33.2 L18.6139999,32.724 C18.6819999,32.214 18.5459999,32.044 18.0019999,32.044 L15.9619999,32.044 L17.3899999,23 L20.4499999,23 C21.3679999,23 21.9799999,23.748 21.8439999,24.666 L20.5179999,33.064 L23.9519999,33.064 L24.0199999,32.724 C24.0879999,32.214 23.9519999,32.044 23.4079999,32.044 L21.7079999,32.044 L23.1359999,23 L25.8559999,23 Z" id="Path" fill="#FFFFFF"></path>
                <path d="M8.278,23 L13.004,23 C15.044,23 16.166,24.326 15.826,26.366 L14.092,37.28 L12.12,37.28 L12.698,33.778 C12.834,32.826 12.528,32.044 11.168,32.044 L6.85,32.044 L8.278,23 Z" id="Path" fill="#FFFFFF"></path>
                <polygon id="Path" fill="#FFFFFF" points="8.482 34.084 7.972 37.28 6 37.28 6.51 34.084"></polygon>
            </g>
        </g>
    </g>
</svg>