<?xml version="1.0" encoding="UTF-8"?>
<svg width="500px" height="700px" viewBox="0 0 500 700" version="1.1" xmlns="http://www.w3.org/2000/svg" xmlns:xlink="http://www.w3.org/1999/xlink">
    <!-- Generator: Sketch 45.2 (43514) - http://www.bohemiancoding.com/sketch -->
    <title>Marmara/Marmara-dislay</title>
    <desc>Created with Sketch.</desc>
    <defs></defs>
    <g id="Page-1" stroke="none" stroke-width="1" fill="none" fill-rule="evenodd">
        <g id="Marmara/Marmara-dislay">
            <rect id="Rectangle" fill="#120A33" x="20" y="20" width="460" height="30"></rect>
            <rect id="Rectangle-Copy" fill="#120A33" x="20" y="650" width="460" height="30"></rect>
            <path d="M101,186 L21,186 L21,203.5 L51.7,203.5 L51.7,243.1 L70.4,243.1 L70.4,203.5 L101,203.5 L101,186 Z M165.3,186 L165.3,206 L122.6,206 L122.6,186 L104,186 L104,243.1 L122.6,243.1 L122.6,223.2 L165.3,223.2 L165.3,243.1 L184,243.1 L184,186 L165.3,186 Z M262,203.5 L262,186 L187,186 L187,243.1 L262,243.1 L262,225.6 L205.7,225.6 L205.7,223.2 L255.5,223.2 L255.5,206 L205.7,206 L205.7,203.5 L262,203.5 Z M101,263 L70.3,263 L60.9,287.2 L51.5,263 L21,263 L21,320.1 L39.7,320.1 L39.7,287.9 L49.6,311.1 L72.2,311.1 L82.3,287.4 L82.3,320.1 L101,320.1 L101,263 Z M161.7,320.1 L156.1,300.2 L129.3,300.2 L123.7,320.1 L104,320.1 L120,263 L165.4,263 L181.4,320.1 L161.7,320.1 Z M134.1,283 L151.3,283 L150.6,280.5 L134.8,280.5 L134.1,283 Z M259.4,281.3 C259.4,289.1 255,296.2 247.7,298.9 L256.8,320.1 L237.1,320.1 L228.5,300.2 L203.1,300.2 L203.1,320.1 L184.4,320.1 L184.4,263 L240.6,263 C251,263 259.4,271.2 259.4,281.3 Z M203.1,280.6 L203.1,283 L240.5,283.1 C241.3,283.1 241.9,282.6 241.9,281.9 C241.9,281.1 241.3,280.6 240.5,280.6 L203.1,280.6 Z M101,340 L70.3,340 L60.9,364.2 L51.5,340 L21,340 L21,397.1 L39.7,397.1 L39.7,364.9 L49.6,388.1 L72.2,388.1 L82.3,364.4 L82.3,397.1 L101,397.1 L101,340 Z M161.7,397.1 L156.1,377.2 L129.3,377.2 L123.7,397.1 L104,397.1 L120,340 L165.4,340 L181.4,397.1 L161.7,397.1 Z M134.1,360 L151.3,360 L150.6,357.5 L134.8,357.5 L134.1,360 Z M259.4,358.3 C259.4,366.1 255,373.2 247.7,375.9 L256.8,397.1 L237.1,397.1 L228.5,377.2 L203.1,377.2 L203.1,397.1 L184.4,397.1 L184.4,340 L240.6,340 C251,340 259.4,348.2 259.4,358.3 Z M203.1,357.6 L203.1,360 L240.5,360.1 C241.3,360.1 241.9,359.6 241.9,358.9 C241.9,358.1 241.3,357.6 240.5,357.6 L203.1,357.6 Z M320.1,397.1 L314.5,377.2 L287.7,377.2 L282.1,397.1 L262.4,397.1 L278.4,340 L323.8,340 L339.8,397.1 L320.1,397.1 Z M292.5,360 L309.7,360 L309,357.5 L293.2,357.5 L292.5,360 Z" id="the-mar-mara-פונט-מר" fill="#EC2600"></path>
            <g id="Group" transform="translate(120.000000, 416.000000)" fill="#120A33">
                <g id="Group-2" transform="translate(136.000000, 0.000000)">
                    <path d="M219.4,0.9 L160,0.9 L160,30 L178.6,30 L178.6,18.4 L205.4,18.4 L205.4,40.5 L160,40.5 L160,58 L219.3,58 C222,58 224,55.8 224,53.3 L224,5.6 C224,3 222,0.9 219.4,0.9 Z" id="Path"></path>
                    <polygon id="Path" points="148.5 0.9 119.2 0.9 119.2 18.4 129.8 18.4 129.8 58 148.5 58"></polygon>
                    <path d="M110.2,0.9 L81.9,0.9 L81.9,18.4 L91.6,18.4 L91.6,40.5 L79.9,40.5 L79.9,58 L105.6,58 C108,58 110.2,55.9 110.2,53.3 L110.2,0.9 Z" id="Path"></path>
                    <path d="M66,1 L66,0.9 L36.5,0.9 L36.5,18.6 L51.3,18.4 L51.3,40.5 L19.6,40.5 L19.6,0.9 L0.9,0.9 L0.9,58 L69.9,58 L69.9,5.6 C69.9,3.2 68.2,1.3 66,1 Z" id="Path"></path>
                </g>
                <g id="Group-3" transform="translate(0.000000, 77.000000)">
                    <path d="M354.4,0.9 L289.7,0.9 L289.7,18.4 L300.7,18.4 L292,58 L311.5,58 L320.7,18.4 L340.3,18.4 L340.3,40.5 L324.3,40.5 L324.3,58 L359,58 L359,5.6 C359,3 357,0.9 354.4,0.9 Z" id="Path"></path>
                    <path d="M275.1,0.9 L219.6,0.9 L219.6,18.4 L261,18.4 L261,58 L279.7,58 L279.7,5.6 C279.7,3 277.7,0.9 275.1,0.9 Z" id="Path"></path>
                    <path d="M206,0.9 L141.3,0.9 L141.3,18.4 L152.3,18.4 L143.6,58 L163.1,58 L172.3,18.4 L191.9,18.4 L191.9,40.5 L175.9,40.5 L175.9,58 L210.6,58 L210.6,5.6 C210.6,3 208.6,0.9 206,0.9 Z" id="Path"></path>
                    <path d="M126.7,0.9 L71.2,0.9 L71.2,18.4 L112.6,18.4 L112.6,58 L131.3,58 L131.3,5.6 C131.3,3 129.3,0.9 126.7,0.9 Z" id="Path"></path>
                    <path d="M62.2,5.6 L62.2,58 L43.5,58 L43.5,18.4 L0.1,18.4 L0.1,0.9 L57.6,0.9 C60.2,0.9 62.2,3 62.2,5.6 Z" id="Path"></path>
                    <polygon id="Path" points="0.1 29 18.7 29 18.7 58 0.1 58"></polygon>
                </g>
                <g id="Group-4" transform="translate(128.000000, 154.000000)">
                    <path d="M232,5.6 C232,3 230,0.9 227.4,0.9 L164.9,0.9 L164.9,58 L183.5,58 L183.5,18.4 L213.4,18.4 L213.4,58 L232,58 L232,5.6 Z" id="Path"></path>
                    <path d="M155.9,18.4 L155.9,5.6 C155.9,3 153.9,0.9 151.3,0.9 L94.7,0.9 L94.7,18.4 L129.6,18.4 L129.6,58 L148.3,58 L148.3,18.4 L155.9,18.4 Z" id="Path"></path>
                    <path d="M67.1,0.9 L67.1,40.5 L19,40.5 L19,29.2 L48.4,29.2 C51,29.2 52.1,28 52.1,25.5 L52.1,0.9 L33.4,0.9 L33.4,14.4 L19,14.4 L19,0.9 L0.4,0.9 L0.4,58 L81,58 C83.6,58 85.7,55.8 85.7,53.3 L85.7,0.9 L67.1,0.9 Z" id="Path"></path>
                </g>
            </g>
        </g>
    </g>
</svg>