<?xml version="1.0" encoding="UTF-8"?>
<svg width="500px" height="700px" viewBox="0 0 500 700" version="1.1" xmlns="http://www.w3.org/2000/svg" xmlns:xlink="http://www.w3.org/1999/xlink">
    <!-- Generator: Sketch 45.2 (43514) - http://www.bohemiancoding.com/sketch -->
    <title>Wall-type/Wall-type-dislay</title>
    <desc>Created with Sketch.</desc>
    <defs></defs>
    <g id="Page-1" stroke="none" stroke-width="1" fill="none" fill-rule="evenodd">
        <g id="Wall-type/Wall-type-dislay">
            <rect id="Rectangle-Copy" fill="#120A33" x="20" y="650" width="460" height="30"></rect>
            <path d="M456.156,292.12 C465.996,292.12 471.408,298.516 469.768,308.356 L461.404,361 L451.892,361 L454.68,344.108 C455.336,339.516 453.86,335.744 447.3,335.744 L435,335.744 C429.26,335.744 426.144,338.86 425.324,343.452 L422.536,361 L412.696,361 L421.06,308.356 C422.7,298.516 430.244,292.12 439.92,292.12 L456.156,292.12 Z M407.448,292.12 C411.876,292.12 414.828,295.728 414.172,300.156 L404.496,361 L394.984,361 L397.936,342.468 C398.592,338.368 397.772,335.744 393.508,335.744 L390.556,335.744 L397.444,292.12 L407.448,292.12 Z M373.008,292.12 L366.284,292.12 C357.1,292.12 349.884,297.86 347.752,306.88 L350.048,292.12 L340.536,292.12 L333.648,335.744 L342.996,335.744 L339.06,361 L348.9,361 L351.688,343.452 C352.508,338.86 355.624,335.744 361.364,335.744 L364.152,335.744 C370.712,335.744 372.188,339.516 371.532,344.108 L370.384,351.16 L355.46,351.16 L353.82,361 L378.256,361 L386.62,308.356 C388.26,298.516 382.848,292.12 373.008,292.12 Z M294.944,292.12 L317.74,292.12 C327.58,292.12 332.992,298.516 331.352,308.356 L322.988,361 L313.476,361 L316.264,344.108 C316.92,339.516 315.444,335.744 308.884,335.744 L288.056,335.744 L294.944,292.12 Z M295.928,345.584 L293.468,361 L283.956,361 L286.416,345.584 L295.928,345.584 Z M245.908,292.12 L235.904,292.12 L229.016,335.744 L231.968,335.744 C236.232,335.744 237.052,338.368 236.396,342.468 L233.444,361 L242.956,361 L252.632,300.156 C253.288,295.728 250.336,292.12 245.908,292.12 Z M211.468,292.12 L204.744,292.12 C195.56,292.12 188.344,297.86 186.212,306.88 L188.508,292.12 L178.996,292.12 L172.108,335.744 L181.456,335.744 L177.52,361 L187.36,361 L190.148,343.452 C190.968,338.86 194.084,335.744 199.824,335.744 L202.612,335.744 C209.172,335.744 210.648,339.516 209.992,344.108 L208.844,351.16 L193.92,351.16 L192.28,361 L216.716,361 L225.08,308.356 C226.72,298.516 221.308,292.12 211.468,292.12 Z M164.4,292.12 C168.828,292.12 171.78,295.728 171.124,300.156 L161.448,361 L151.936,361 L153.084,353.292 L148.492,353.292 C142.752,353.292 139.636,356.408 138.816,361 L130.288,361 C131.928,351.16 139.472,344.764 149.148,344.764 L154.56,344.764 L154.888,342.468 C155.544,338.368 154.724,335.744 150.46,335.744 L144.228,335.744 L151.116,292.12 L164.4,292.12 Z M120.12,292.12 C129.96,292.12 135.372,298.516 133.732,308.356 L129.468,335.744 L121.268,335.744 L117.168,361 L107.656,361 L111.756,335.744 L83.712,335.744 L90.6,292.12 L120.12,292.12 Z M64.524,292.12 L46.976,292.12 L49.764,274.08 L40.252,274.08 L33.364,317.704 L30.576,335.744 L55.668,335.744 C62.228,335.744 63.704,339.516 63.048,344.108 L61.9,351.16 L46.976,351.16 L45.336,361 L69.772,361 L78.136,308.356 C79.776,298.516 74.364,292.12 64.524,292.12 Z" id="חומה-ומגדל-copy" fill="#EC2600"></path>
        </g>
    </g>
</svg>